<svg width="74" height="92" viewBox="0 0 74 92" fill="none" xmlns="http://www.w3.org/2000/svg">
<path d="M54.0999 28.5715H27.8521L26.6858 24.6486C26.5467 24.1813 26.1153 23.8597 25.6247 23.8582L19.9037 23.8398H19.9C19.2888 23.8398 18.7923 24.3314 18.79 24.9401C18.7878 25.5495 19.2836 26.0456 19.8963 26.0478L24.7907 26.0632L29.042 40.363C29.0339 40.416 29.0257 40.4697 29.0257 40.5249V45.3737C29.0257 45.9831 29.523 46.4777 30.1357 46.4777H48.9835C49.5962 46.4777 50.0935 45.9831 50.0935 45.3737C50.0935 44.7643 49.5962 44.2697 48.9835 44.2697H31.2457V41.6289H50.0314C50.4946 41.6289 50.9097 41.3426 51.0711 40.9106L55.1396 30.0619C55.2669 29.7226 55.2188 29.3429 55.0116 29.0462C54.8044 28.7496 54.464 28.5715 54.0999 28.5715ZM49.261 39.4209H31.077L28.5077 30.7803H52.5015L49.261 39.4209ZM32.7146 52.7042C34.262 52.7042 35.52 51.4523 35.52 49.9126C35.52 48.3736 34.262 47.1224 32.7146 47.1224C31.1673 47.1224 29.9085 48.3736 29.9085 49.9126C29.9085 51.4523 31.1673 52.7042 32.7146 52.7042ZM32.7146 49.3304C33.038 49.3304 33.3 49.591 33.3 49.9126C33.3 50.235 33.038 50.4962 32.7146 50.4962C32.3912 50.4962 32.1285 50.235 32.1285 49.9126C32.1285 49.5917 32.3912 49.3304 32.7146 49.3304ZM45.6543 47.1224C44.1069 47.1224 42.8482 48.3736 42.8482 49.9126C42.8482 51.4523 44.1069 52.7042 45.6543 52.7042C47.2016 52.7042 48.4596 51.4523 48.4596 49.9126C48.4596 48.3743 47.2016 47.1224 45.6543 47.1224ZM45.6543 50.4962C45.3309 50.4962 45.0682 50.235 45.0682 49.9126C45.0682 49.591 45.3309 49.3304 45.6543 49.3304C45.9776 49.3304 46.2396 49.591 46.2396 49.9126C46.2396 50.235 45.9776 50.4962 45.6543 50.4962Z" fill="black"/>
</svg>
