<svg width="38" height="32" viewBox="0 0 38 32" fill="none" xmlns="http://www.w3.org/2000/svg">
<path d="M36.8421 5.48882H9.45528L8.23843 1.3348C8.09328 0.8399 7.64313 0.499315 7.13122 0.497756L1.16203 0.478271H1.15817C0.52041 0.478271 0.00232408 0.998891 7.74849e-06 1.64343C-0.00230858 2.28874 0.515004 2.81403 1.15431 2.81637L6.26106 2.83274L10.6968 17.9751C10.6883 18.0312 10.6798 18.0881 10.6798 18.1465V23.281C10.6798 23.9263 11.1987 24.45 11.838 24.45H31.5037C32.143 24.45 32.6618 23.9263 32.6618 23.281C32.6618 22.6357 32.143 22.1119 31.5037 22.1119H12.9962V19.3156H32.597C33.0803 19.3156 33.5135 19.0124 33.6818 18.5549L37.9269 7.06704C38.0597 6.70775 38.0095 6.3056 37.7933 5.99151C37.5771 5.67743 37.2219 5.48882 36.8421 5.48882ZM31.7932 16.9775H12.8201L10.1394 7.8277H35.1743L31.7932 16.9775ZM14.5288 31.0435C16.1433 31.0435 17.4559 29.7178 17.4559 28.0873C17.4559 26.4577 16.1433 25.1328 14.5288 25.1328C12.9143 25.1328 11.601 26.4577 11.601 28.0873C11.601 29.7178 12.9143 31.0435 14.5288 31.0435ZM14.5288 27.4709C14.8662 27.4709 15.1396 27.7468 15.1396 28.0873C15.1396 28.4287 14.8662 28.7054 14.5288 28.7054C14.1914 28.7054 13.9173 28.4287 13.9173 28.0873C13.9173 27.7475 14.1914 27.4709 14.5288 27.4709ZM28.03 25.1328C26.4155 25.1328 25.1021 26.4577 25.1021 28.0873C25.1021 29.7178 26.4155 31.0435 28.03 31.0435C29.6444 31.0435 30.957 29.7178 30.957 28.0873C30.957 26.4585 29.6444 25.1328 28.03 25.1328ZM28.03 28.7054C27.6925 28.7054 27.4184 28.4287 27.4184 28.0873C27.4184 27.7468 27.6925 27.4709 28.03 27.4709C28.3674 27.4709 28.6407 27.7468 28.6407 28.0873C28.6407 28.4287 28.3674 28.7054 28.03 28.7054Z" fill="black"/>
</svg>
