<svg width="28" height="31" viewBox="0 0 28 31" fill="none" xmlns="http://www.w3.org/2000/svg">
<path d="M14.0001 0.297363C6.26813 0.297363 0 7.16058 0 15.6266C0 23.2196 5.04731 29.5079 11.6651 30.7256V18.8247H8.28792V14.542H11.6651V11.3842C11.6651 7.72014 13.709 5.72346 16.6946 5.72346C18.1245 5.72346 19.3533 5.84013 19.7101 5.89151V9.7214L17.6393 9.72249C16.016 9.72249 15.7031 10.567 15.7031 11.8066V14.5398H19.5765L19.0713 18.8225H15.7031V30.828C22.6299 29.9049 28 23.4564 28 15.6222C28 7.16058 21.7319 0.297363 14.0001 0.297363Z" fill="#F8C804"/>
</svg>
