<svg width="29" height="31" viewBox="0 0 29 31" fill="none" xmlns="http://www.w3.org/2000/svg">
<g clip-path="url(#clip0)">
<path d="M17.3597 15.6265C17.3597 14.006 16.16 12.6924 14.6801 12.6924C13.2001 12.6924 12.0004 14.006 12.0004 15.6265C12.0004 17.2469 13.2001 18.5605 14.6801 18.5605C16.16 18.5605 17.3597 17.2469 17.3597 15.6265Z" fill="#F8C804"/>
<path d="M20.9469 20.8177C20.8181 21.1999 20.6126 21.5459 20.3455 21.8298C20.0862 22.1222 19.7705 22.3472 19.4212 22.4883C19.1379 22.6087 18.7124 22.7521 17.9286 22.7912C17.0807 22.8335 16.8265 22.8427 14.6801 22.8427C12.5334 22.8427 12.2791 22.8338 11.4315 22.7914C10.6477 22.7521 10.222 22.6087 9.9389 22.4883C9.58963 22.3472 9.27368 22.1222 9.01456 21.8298C8.74753 21.5459 8.54202 21.2002 8.41299 20.8177C8.30298 20.5076 8.17203 20.0414 8.13635 19.1832C8.09769 18.2551 8.08936 17.9767 8.08936 15.6262C8.08936 13.276 8.09769 12.9976 8.13635 12.0693C8.17203 11.2111 8.30298 10.7451 8.41299 10.435C8.54202 10.0525 8.74731 9.70683 9.01434 9.42287C9.27368 9.13049 9.58942 8.90548 9.93869 8.76443C10.222 8.64374 10.6477 8.50036 11.4315 8.46129C12.2791 8.41896 12.5331 8.41007 14.6798 8.41007C16.8268 8.41007 17.081 8.41896 17.9284 8.46129C18.7122 8.50036 19.1379 8.64374 19.4212 8.76443C20.1223 9.06056 20.6765 9.6673 20.9469 10.435C21.0569 10.7451 21.1879 11.2111 21.2238 12.0693C21.2624 12.9976 21.2705 13.276 21.2705 15.6262C21.2705 17.9767 21.2624 18.2551 21.2238 19.1832C21.1881 20.0414 21.0571 20.5076 20.9469 20.8177ZM14.6801 11.1065C12.4001 11.1065 10.5518 13.13 10.5518 15.6265C10.5518 18.1229 12.4001 20.1464 14.6801 20.1464C16.9598 20.1464 18.8081 18.1229 18.8081 15.6265C18.8081 13.13 16.9598 11.1065 14.6801 11.1065ZM18.9713 19.2688C18.4385 19.2688 18.0066 19.7418 18.0066 20.3251C18.0066 20.9085 18.4385 21.3815 18.9713 21.3815C19.5041 21.3815 19.936 20.9085 19.936 20.3251C19.9358 19.7418 19.5041 19.2688 18.9713 19.2688Z" fill="#F8C804"/>
<path d="M14.6801 30.9556C6.94925 30.9556 0.680054 24.0912 0.680054 15.6264C0.680054 7.16168 6.94925 0.297302 14.6801 0.297302C22.4109 0.297302 28.6801 7.16168 28.6801 15.6264C28.6801 24.0912 22.4109 30.9556 14.6801 30.9556ZM22.6706 11.9974C22.6317 11.0604 22.4957 10.4207 22.297 9.8607C21.8794 8.67832 21.0257 7.74364 19.9459 7.28635C19.4347 7.06882 18.8502 6.92006 17.9946 6.87726C17.1374 6.83445 16.8635 6.82416 14.6803 6.82416C12.4968 6.82416 12.2232 6.83445 11.3657 6.87726C10.5101 6.92006 9.92566 7.06882 9.41446 7.28635C8.87784 7.50739 8.39206 7.85381 7.99045 8.30173C7.58157 8.74124 7.2652 9.27337 7.06332 9.8607C6.86465 10.4204 6.72858 11.0604 6.6897 11.9972C6.65018 12.9361 6.64099 13.2359 6.64099 15.6264C6.64099 18.0169 6.65018 18.3168 6.68948 19.2555C6.72836 20.1925 6.86423 20.8322 7.0629 21.3922C7.26477 21.9795 7.58136 22.5116 7.99045 22.9511C8.39185 23.3991 8.87784 23.7455 9.41425 23.9665C9.92566 24.184 10.5099 24.3328 11.3657 24.3756C12.223 24.4184 12.4968 24.4287 14.6801 24.4287C16.8633 24.4287 17.1371 24.4184 17.9944 24.3754C18.8502 24.3328 19.4344 24.184 19.9459 23.9667C20.4823 23.7457 20.9683 23.3991 21.3699 22.9511C21.7787 22.5114 22.0953 21.9795 22.297 21.3922C22.4959 20.8322 22.6317 20.1925 22.6708 19.2555C22.7099 18.3168 22.7191 18.0169 22.7191 15.6264C22.7191 13.2359 22.7099 12.9361 22.6706 11.9974Z" fill="#F8C804"/>
</g>
<defs>
<clipPath id="clip0">
<rect width="28" height="30.6583" transform="matrix(1 0 0 -1 0.680054 30.9556)" fill="white"/>
</clipPath>
</defs>
</svg>
