<svg width="62" height="77" viewBox="0 0 62 77" fill="none" xmlns="http://www.w3.org/2000/svg">
<g clip-path="url(#clip0)">
<path d="M30.9999 32.725C27.9343 32.725 24.9375 31.8218 22.3885 30.1296C19.8396 28.4375 17.8529 26.0323 16.6798 23.2183C15.5066 20.4043 15.1996 17.3079 15.7977 14.3206C16.3958 11.3333 17.872 8.58928 20.0397 6.43555C22.2074 4.28182 24.9693 2.81511 27.976 2.2209C30.9827 1.62669 34.0992 1.93166 36.9315 3.09725C39.7637 4.26284 42.1845 6.2367 43.8877 8.76921C45.5908 11.3017 46.4999 14.2792 46.4999 17.325C46.4999 21.4093 44.8669 25.3264 41.96 28.2144C39.0532 31.1025 35.1107 32.725 30.9999 32.725ZM30.9999 5.77499C28.7007 5.77499 26.4531 6.45239 24.5414 7.72152C22.6297 8.99065 21.1397 10.7945 20.2598 12.905C19.3799 15.0155 19.1497 17.3378 19.5983 19.5783C20.0468 21.8188 21.154 23.8768 22.7798 25.4921C24.4056 27.1074 26.4769 28.2074 28.732 28.6531C30.987 29.0987 33.3244 28.87 35.4486 27.9958C37.5728 27.1216 39.3883 25.6412 40.6657 23.7418C41.9431 21.8424 42.6249 19.6094 42.6249 17.325C42.6249 14.2617 41.4001 11.324 39.22 9.15791C37.0399 6.99187 34.083 5.77499 30.9999 5.77499Z" fill="black"/>
<path d="M58.1249 59.675H3.87494C3.36108 59.675 2.86827 59.4722 2.50492 59.1112C2.14157 58.7502 1.93744 58.2605 1.93744 57.75V57.2687C1.86491 52.3689 3.75212 47.6406 7.18483 44.1217C10.6175 40.6029 15.3152 38.5811 20.2468 38.5H41.7531C46.6846 38.5811 51.3823 40.6029 54.815 44.1217C58.2478 47.6406 60.135 52.3689 60.0624 57.2687V57.75C60.0624 58.2605 59.8583 58.7502 59.495 59.1112C59.1316 59.4722 58.6388 59.675 58.1249 59.675ZM5.81244 55.825H56.1874C55.9041 52.2059 54.275 48.8212 51.6174 46.3302C48.9598 43.8393 45.4641 42.4204 41.8112 42.35H20.2468C16.5838 42.4062 13.0738 43.8187 10.404 46.3111C7.73414 48.8034 6.09678 52.1962 5.81244 55.825Z" fill="black"/>
</g>
<defs>
<clipPath id="clip0">
<rect width="62" height="77" fill="white"/>
</clipPath>
</defs>
</svg>
