<svg width="32" height="32" viewBox="0 0 32 32" fill="none" xmlns="http://www.w3.org/2000/svg">
<path d="M15.9999 17.2065C14.3661 17.2065 12.7689 16.722 11.4104 15.8143C10.052 14.9066 8.99314 13.6164 8.36789 12.1069C7.74264 10.5974 7.57905 8.93646 7.8978 7.33401C8.21655 5.73156 9.00332 4.25961 10.1586 3.10431C11.3139 1.94901 12.7859 1.16223 14.3883 0.843487C15.9908 0.52474 17.6518 0.688333 19.1612 1.31358C20.6707 1.93882 21.9609 2.99764 22.8686 4.35613C23.7763 5.71463 24.2608 7.31178 24.2608 8.94563C24.2608 11.1365 23.3905 13.2377 21.8413 14.7869C20.292 16.3362 18.1909 17.2065 15.9999 17.2065ZM15.9999 2.74997C14.7746 2.74997 13.5767 3.11334 12.5578 3.79413C11.5389 4.47492 10.7448 5.44255 10.2759 6.57465C9.80697 7.70676 9.68427 8.9525 9.92333 10.1543C10.1624 11.3562 10.7525 12.4601 11.619 13.3266C12.4854 14.1931 13.5894 14.7832 14.7912 15.0222C15.9931 15.2613 17.2388 15.1386 18.3709 14.6697C19.503 14.2007 20.4706 13.4066 21.1514 12.3877C21.8322 11.3689 22.1956 10.171 22.1956 8.94563C22.1956 7.30244 21.5428 5.72655 20.3809 4.56464C19.219 3.40273 17.6431 2.74997 15.9999 2.74997Z" fill="black"/>
<path d="M30.4565 31.663H1.54344C1.26958 31.663 1.00693 31.5542 0.813279 31.3606C0.619628 31.1669 0.510835 30.9043 0.510835 30.6304V30.3723C0.47218 27.7439 1.47799 25.2075 3.30748 23.3199C5.13697 21.4324 7.64066 20.3478 10.269 20.3043H21.7309C24.3593 20.3478 26.863 21.4324 28.6925 23.3199C30.5219 25.2075 31.5278 27.7439 31.4891 30.3723V30.6304C31.4891 30.9043 31.3803 31.1669 31.1867 31.3606C30.993 31.5542 30.7304 31.663 30.4565 31.663ZM2.57605 29.5978H29.4239C29.2729 27.6565 28.4046 25.8408 26.9882 24.5046C25.5718 23.1684 23.7088 22.4073 21.7619 22.3695H10.269C8.31675 22.3997 6.44606 23.1574 5.02315 24.4943C3.60024 25.8313 2.72759 27.6512 2.57605 29.5978Z" fill="black"/>
</svg>
