<svg width="64" height="64" viewBox="0 0 64 64" fill="none" xmlns="http://www.w3.org/2000/svg">
<path d="M17.6709 14.5648C16.7479 13.641 15.2504 13.641 14.3274 14.5648C10.9004 17.9918 9.21602 22.7658 9.70552 27.6635C9.82764 28.8836 10.8555 29.7931 12.0559 29.7931C12.1348 29.7931 12.2143 29.7891 12.2931 29.7813C13.5929 29.6513 14.541 28.4918 14.411 27.1929C14.0626 23.7123 15.2513 20.3279 17.6709 17.9081C18.5946 16.9853 18.5946 15.4876 17.6709 14.5648Z" fill="#F8C804"/>
<path d="M27.0345 0C12.1276 0 0 12.1276 0 27.0345C0 41.9414 12.1276 54.069 27.0345 54.069C41.9414 54.069 54.069 41.9414 54.069 27.0345C54.069 12.1276 41.9413 0 27.0345 0ZM27.0345 49.3399C14.735 49.3399 4.72913 39.334 4.72913 27.0345C4.72913 14.735 14.735 4.72913 27.0345 4.72913C39.3333 4.72913 49.3399 14.735 49.3399 27.0345C49.3399 39.334 39.334 49.3399 27.0345 49.3399Z" fill="#F8C804"/>
<path d="M63.3073 59.9637L46.1249 42.7815C45.2011 41.8577 43.7051 41.8577 42.7814 42.7815C41.8576 43.7045 41.8576 45.202 42.7814 46.125L59.9638 63.3073C60.4256 63.7691 61.0301 64 61.6355 64C62.2409 64 62.8454 63.7691 63.3073 63.3073C64.2309 62.3843 64.2309 60.8867 63.3073 59.9637Z" fill="#F8C804"/>
</svg>
