<svg width="28" height="31" viewBox="0 0 28 31" fill="none" xmlns="http://www.w3.org/2000/svg">
<g clip-path="url(#clip0)">
<path d="M14 0.297363C6.2692 0.297363 0 7.16174 0 15.6265C0 24.0912 6.2692 30.9556 14 30.9556C21.7308 30.9556 28 24.0912 28 15.6265C28 7.16174 21.7308 0.297363 14 0.297363ZM20.3922 12.2494C20.3984 12.4003 20.4014 12.5518 20.4014 12.7041C20.4014 17.3534 17.1693 22.7147 11.2586 22.715H11.2588H11.2586C9.44385 22.715 7.75516 22.1325 6.33307 21.1345C6.5845 21.167 6.84042 21.1831 7.09955 21.1831C8.60516 21.1831 9.99072 20.6208 11.0907 19.677C9.68396 19.6485 8.49792 18.6312 8.08862 17.2332C8.28452 17.2743 8.48596 17.2968 8.69254 17.2968C8.98584 17.2968 9.26996 17.2535 9.53998 17.1728C8.06961 16.8505 6.96198 15.4277 6.96198 13.7239C6.96198 13.708 6.96198 13.6937 6.9624 13.679C7.39542 13.9426 7.89059 14.1012 8.41782 14.119C7.55499 13.4886 6.98782 12.411 6.98782 11.1903C6.98782 10.5456 7.14697 9.94169 7.42297 9.42172C9.00763 11.5507 11.3759 12.9509 14.0466 13.098C13.9915 12.8402 13.963 12.5717 13.963 12.2957C13.963 10.3534 15.4022 8.77755 17.1768 8.77755C18.1011 8.77755 18.936 9.20536 19.5224 9.8893C20.2545 9.73118 20.9419 9.43833 21.5629 9.03531C21.3226 9.85655 20.8133 10.5456 20.1498 10.9814C20.7998 10.8963 21.4193 10.7075 21.9951 10.4273C21.565 11.133 21.0197 11.7528 20.3922 12.2494Z" fill="#F8C804"/>
</g>
<defs>
<clipPath id="clip0">
<rect y="0.297363" width="28" height="30.6583" fill="white"/>
</clipPath>
</defs>
</svg>
