<svg width="54" height="56" viewBox="0 0 54 56" fill="none" xmlns="http://www.w3.org/2000/svg">
<g filter="url(#filter0_d)">
<rect x="3" y="3" width="46" height="48" rx="5" fill="#F8C804"/>
</g>
<path d="M13.703 13.9145L13.6214 13.5143H13.213H8.9928C8.68263 13.5143 8.39783 13.247 8.39783 12.8753C8.39783 12.5035 8.68263 12.2362 8.9928 12.2362L14.1027 12.2362L14.1032 12.2362C14.3495 12.2359 14.6264 12.4522 14.685 12.7383L15.2781 15.6335L15.36 16.0331H15.768H40.3798C40.518 16.0347 40.6837 16.1158 40.8127 16.2848C40.941 16.4527 40.9889 16.6512 40.9544 16.8143C40.9543 16.8149 40.9541 16.8155 40.954 16.8161L38.4 28.2029L38.4 28.2029L38.3991 28.207C38.3386 28.4878 38.0679 28.6995 37.8247 28.7022H18.5396H17.9265L18.0498 29.3028L18.5175 31.581L18.5995 31.9804H19.0073H36.3672V31.9805L36.3745 31.9804C36.6552 31.9762 36.9777 32.2775 36.9777 32.6195C36.9777 32.9614 36.6553 33.2627 36.3744 33.2587V33.2586H36.3672L18.1176 33.2586L18.1134 33.2586C18.0263 33.2593 17.9082 33.2166 17.7758 33.0616C17.6428 32.9059 17.5272 32.6687 17.4664 32.3866C17.4662 32.3858 17.4661 32.385 17.4659 32.3843L13.703 13.9145ZM16.2242 17.3113H15.6121L15.7342 17.9111L16.43 21.3284L16.5115 21.7286H16.92H22.4747H23.0612L22.9684 21.1495L22.4209 17.7322L22.3535 17.3113H21.9272H16.2242ZM24.1628 17.3113H23.5763L23.6691 17.8904L24.2165 21.3077L24.284 21.7286H24.7102H30.5045H30.9308L30.9982 21.3077L31.5457 17.8904L31.6385 17.3113H31.052H24.1628ZM33.2875 17.3113H32.8613L32.7938 17.7322L32.2464 21.1495L32.1536 21.7286H32.7401H38.2377H38.6383L38.7257 21.3377L39.4899 17.9204L39.6261 17.3113H39.002H33.2875ZM17.3876 23.0068H16.7755L16.8977 23.6065L17.5934 27.0238L17.6749 27.424H18.0834H23.3872H23.9736L23.8809 26.8449L23.3334 23.4277L23.2659 23.0068H22.8397H17.3876ZM25.0752 23.0068H24.4888L24.5815 23.5859L25.129 27.0031L25.1965 27.424H25.6227H29.592H30.0183L30.0857 27.0031L30.6332 23.5859L30.726 23.0068H30.1395H25.0752ZM32.3751 23.0068H31.9488L31.8814 23.4277L31.3339 26.8449L31.2411 27.424H31.8276H36.9603H37.3608L37.4482 27.0332L38.2124 23.6159L38.3487 23.0068H37.7245H32.3751ZM18.9826 39.0743C18.9826 37.2481 20.4242 35.7774 22.1325 35.7774C23.8407 35.7774 25.2824 37.2482 25.2824 39.0743C25.2824 40.9005 23.8407 42.3713 22.1325 42.3713C20.4242 42.3713 18.9826 40.9005 18.9826 39.0743ZM29.2023 39.0743C29.2023 37.2481 30.644 35.7774 32.3523 35.7774C34.0605 35.7774 35.5022 37.2482 35.5022 39.0743C35.5022 40.9005 34.0605 42.3713 32.3523 42.3713C30.644 42.3713 29.2023 40.9005 29.2023 39.0743ZM24.0925 39.0743C24.0925 37.9647 23.2464 37.0555 22.1325 37.0555C21.0187 37.0555 20.1725 37.9647 20.1725 39.0743C20.1725 40.1839 21.0187 41.0931 22.1325 41.0931C23.2464 41.0931 24.0925 40.1839 24.0925 39.0743ZM34.3122 39.0743C34.3122 37.9647 33.4661 37.0555 32.3523 37.0555C31.2385 37.0555 30.3923 37.9647 30.3923 39.0743C30.3923 40.1839 31.2385 41.0931 32.3523 41.0931C33.4661 41.0931 34.3122 40.1839 34.3122 39.0743Z" fill="white" stroke="white"/>
<defs>
<filter id="filter0_d" x="0" y="0" width="54" height="56" filterUnits="userSpaceOnUse" color-interpolation-filters="sRGB">
<feFlood flood-opacity="0" result="BackgroundImageFix"/>
<feColorMatrix in="SourceAlpha" type="matrix" values="0 0 0 0 0 0 0 0 0 0 0 0 0 0 0 0 0 0 127 0"/>
<feOffset dx="1" dy="1"/>
<feGaussianBlur stdDeviation="2"/>
<feColorMatrix type="matrix" values="0 0 0 0 0 0 0 0 0 0 0 0 0 0 0 0 0 0 0.25 0"/>
<feBlend mode="normal" in2="BackgroundImageFix" result="effect1_dropShadow"/>
<feBlend mode="normal" in="SourceGraphic" in2="effect1_dropShadow" result="shape"/>
</filter>
</defs>
</svg>
