<svg width="25" height="24" viewBox="0 0 25 24" fill="none" xmlns="http://www.w3.org/2000/svg">
<path d="M14.0909 12L24.6591 1.85454C25.1136 1.41818 25.1136 0.763636 24.6591 0.327273C24.2045 -0.109091 23.5227 -0.109091 23.0682 0.327273L12.5 10.4727L1.93182 0.327273C1.47727 -0.109091 0.795455 -0.109091 0.340909 0.327273C-0.113636 0.763636 -0.113636 1.41818 0.340909 1.85454L10.9091 12L0.340909 22.1455C-0.113636 22.5818 -0.113636 23.2364 0.340909 23.6727C0.568182 23.8909 0.795454 24 1.13636 24C1.47727 24 1.70454 23.8909 1.93182 23.6727L12.5 13.5273L23.0682 23.6727C23.2955 23.8909 23.6364 24 23.8636 24C24.0909 24 24.4318 23.8909 24.6591 23.6727C25.1136 23.2364 25.1136 22.5818 24.6591 22.1455L14.0909 12Z" fill="black"/>
</svg>
