<svg width="321" height="75" viewBox="0 0 321 75" fill="none" xmlns="http://www.w3.org/2000/svg">
<rect width="321" height="75" rx="10" fill="#FFD837"/>
<path d="M146.124 47.076V51H127.224V25.8H145.62V29.724H131.904V36.276H144.072V40.128H131.904V47.076H146.124ZM169.561 24.288V51H165.241V48.516C164.497 49.428 163.573 50.112 162.469 50.568C161.389 51.024 160.189 51.252 158.869 51.252C157.021 51.252 155.353 50.844 153.865 50.028C152.401 49.212 151.249 48.06 150.409 46.572C149.569 45.06 149.149 43.332 149.149 41.388C149.149 39.444 149.569 37.728 150.409 36.24C151.249 34.752 152.401 33.6 153.865 32.784C155.353 31.968 157.021 31.56 158.869 31.56C160.141 31.56 161.305 31.776 162.361 32.208C163.417 32.64 164.317 33.288 165.061 34.152V24.288H169.561ZM159.409 47.4C160.489 47.4 161.461 47.16 162.325 46.68C163.189 46.176 163.873 45.468 164.377 44.556C164.881 43.644 165.133 42.588 165.133 41.388C165.133 40.188 164.881 39.132 164.377 38.22C163.873 37.308 163.189 36.612 162.325 36.132C161.461 35.628 160.489 35.376 159.409 35.376C158.329 35.376 157.357 35.628 156.493 36.132C155.629 36.612 154.945 37.308 154.441 38.22C153.937 39.132 153.685 40.188 153.685 41.388C153.685 42.588 153.937 43.644 154.441 44.556C154.945 45.468 155.629 46.176 156.493 46.68C157.357 47.16 158.329 47.4 159.409 47.4ZM175.448 31.776H179.948V51H175.448V31.776ZM177.716 28.608C176.9 28.608 176.216 28.356 175.664 27.852C175.112 27.324 174.836 26.676 174.836 25.908C174.836 25.14 175.112 24.504 175.664 24C176.216 23.472 176.9 23.208 177.716 23.208C178.532 23.208 179.216 23.46 179.768 23.964C180.32 24.444 180.596 25.056 180.596 25.8C180.596 26.592 180.32 27.264 179.768 27.816C179.24 28.344 178.556 28.608 177.716 28.608ZM197.41 49.956C196.882 50.388 196.234 50.712 195.466 50.928C194.722 51.144 193.93 51.252 193.09 51.252C190.978 51.252 189.346 50.7 188.194 49.596C187.042 48.492 186.466 46.884 186.466 44.772V35.52H183.298V31.92H186.466V27.528H190.966V31.92H196.114V35.52H190.966V44.664C190.966 45.6 191.194 46.32 191.65 46.824C192.106 47.304 192.766 47.544 193.63 47.544C194.638 47.544 195.478 47.28 196.15 46.752L197.41 49.956Z" fill="white"/>
</svg>
