<svg width="58" height="58" viewBox="0 0 58 58" fill="none" xmlns="http://www.w3.org/2000/svg">
<g filter="url(#filter0_d)">
<rect x="3" y="3" width="50" height="50" rx="5" fill="#F8C804"/>
</g>
<path d="M19.391 18.7894C17.907 18.7894 16.6842 20.0123 16.6842 21.4962V33.5263C16.6842 35.0102 17.907 36.233 19.391 36.233H39.2406C40.7245 36.233 41.9474 35.0102 41.9474 33.5263V21.4962C41.9474 20.0123 40.7245 18.7894 39.2406 18.7894H19.391ZM19.5883 20.5939H39.0526L29.8703 28.7894C29.5203 29.102 29.1309 29.1023 28.7801 28.7894L19.5883 20.5939ZM18.4887 22.0319L24.6729 27.5488L18.4887 33.4887V22.0319ZM40.1429 22.0319V33.4793L33.9774 27.5394L40.1429 22.0319ZM32.6241 28.7518L38.5169 34.4285H20.1146L26.0263 28.7612L27.5771 30.1428C28.5628 31.0217 30.0875 31.0231 31.0733 30.1428L32.6241 28.7518Z" fill="white"/>
<defs>
<filter id="filter0_d" x="0" y="0" width="58" height="58" filterUnits="userSpaceOnUse" color-interpolation-filters="sRGB">
<feFlood flood-opacity="0" result="BackgroundImageFix"/>
<feColorMatrix in="SourceAlpha" type="matrix" values="0 0 0 0 0 0 0 0 0 0 0 0 0 0 0 0 0 0 127 0"/>
<feOffset dx="1" dy="1"/>
<feGaussianBlur stdDeviation="2"/>
<feColorMatrix type="matrix" values="0 0 0 0 0 0 0 0 0 0 0 0 0 0 0 0 0 0 0.25 0"/>
<feBlend mode="normal" in2="BackgroundImageFix" result="effect1_dropShadow"/>
<feBlend mode="normal" in="SourceGraphic" in2="effect1_dropShadow" result="shape"/>
</filter>
</defs>
</svg>
