<svg width="321" height="75" viewBox="0 0 321 75" fill="none" xmlns="http://www.w3.org/2000/svg">
<rect width="321" height="75" rx="10" fill="#FFD837"/>
<path d="M122.508 51.36C119.94 51.36 117.624 50.808 115.56 49.704C113.496 48.576 111.876 47.028 110.7 45.06C109.524 43.068 108.936 40.848 108.936 38.4C108.936 35.952 109.524 33.744 110.7 31.776C111.876 29.784 113.496 28.236 115.56 27.132C117.624 26.004 119.94 25.44 122.508 25.44C125.076 25.44 127.392 26.004 129.456 27.132C131.52 28.236 133.14 29.772 134.316 31.74C135.492 33.708 136.08 35.928 136.08 38.4C136.08 40.872 135.492 43.092 134.316 45.06C133.14 47.028 131.52 48.576 129.456 49.704C127.392 50.808 125.076 51.36 122.508 51.36ZM122.508 47.256C124.188 47.256 125.7 46.884 127.044 46.14C128.388 45.372 129.444 44.316 130.212 42.972C130.98 41.604 131.364 40.08 131.364 38.4C131.364 36.72 130.98 35.208 130.212 33.864C129.444 32.496 128.388 31.44 127.044 30.696C125.7 29.928 124.188 29.544 122.508 29.544C120.828 29.544 119.316 29.928 117.972 30.696C116.628 31.44 115.572 32.496 114.804 33.864C114.036 35.208 113.652 36.72 113.652 38.4C113.652 40.08 114.036 41.604 114.804 42.972C115.572 44.316 116.628 45.372 117.972 46.14C119.316 46.884 120.828 47.256 122.508 47.256ZM144.892 34.584C146.188 32.568 148.468 31.56 151.732 31.56V35.844C151.348 35.772 151 35.736 150.688 35.736C148.936 35.736 147.568 36.252 146.584 37.284C145.6 38.292 145.108 39.756 145.108 41.676V51H140.608V31.776H144.892V34.584ZM174.202 24.288V51H169.882V48.516C169.138 49.428 168.214 50.112 167.11 50.568C166.03 51.024 164.83 51.252 163.51 51.252C161.662 51.252 159.994 50.844 158.506 50.028C157.042 49.212 155.89 48.06 155.05 46.572C154.21 45.06 153.79 43.332 153.79 41.388C153.79 39.444 154.21 37.728 155.05 36.24C155.89 34.752 157.042 33.6 158.506 32.784C159.994 31.968 161.662 31.56 163.51 31.56C164.782 31.56 165.946 31.776 167.002 32.208C168.058 32.64 168.958 33.288 169.702 34.152V24.288H174.202ZM164.05 47.4C165.13 47.4 166.102 47.16 166.966 46.68C167.83 46.176 168.514 45.468 169.018 44.556C169.522 43.644 169.774 42.588 169.774 41.388C169.774 40.188 169.522 39.132 169.018 38.22C168.514 37.308 167.83 36.612 166.966 36.132C166.102 35.628 165.13 35.376 164.05 35.376C162.97 35.376 161.998 35.628 161.134 36.132C160.27 36.612 159.586 37.308 159.082 38.22C158.578 39.132 158.326 40.188 158.326 41.388C158.326 42.588 158.578 43.644 159.082 44.556C159.586 45.468 160.27 46.176 161.134 46.68C161.998 47.16 162.97 47.4 164.05 47.4ZM198.161 41.496C198.161 41.808 198.137 42.252 198.089 42.828H183.005C183.269 44.244 183.953 45.372 185.057 46.212C186.185 47.028 187.577 47.436 189.233 47.436C191.345 47.436 193.085 46.74 194.453 45.348L196.865 48.12C196.001 49.152 194.909 49.932 193.589 50.46C192.269 50.988 190.781 51.252 189.125 51.252C187.013 51.252 185.153 50.832 183.545 49.992C181.937 49.152 180.689 47.988 179.801 46.5C178.937 44.988 178.505 43.284 178.505 41.388C178.505 39.516 178.925 37.836 179.765 36.348C180.629 34.836 181.817 33.66 183.329 32.82C184.841 31.98 186.545 31.56 188.441 31.56C190.313 31.56 191.981 31.98 193.445 32.82C194.933 33.636 196.085 34.8 196.901 36.312C197.741 37.8 198.161 39.528 198.161 41.496ZM188.441 35.16C187.001 35.16 185.777 35.592 184.769 36.456C183.785 37.296 183.185 38.424 182.969 39.84H193.877C193.685 38.448 193.097 37.32 192.113 36.456C191.129 35.592 189.905 35.16 188.441 35.16ZM206.767 34.584C208.063 32.568 210.343 31.56 213.607 31.56V35.844C213.223 35.772 212.875 35.736 212.563 35.736C210.811 35.736 209.443 36.252 208.459 37.284C207.475 38.292 206.983 39.756 206.983 41.676V51H202.483V31.776H206.767V34.584Z" fill="white"/>
</svg>
