<svg width="157" height="55" viewBox="0 0 157 55" fill="none" xmlns="http://www.w3.org/2000/svg">
<rect width="157" height="55" rx="5" fill="#F8C804"/>
<path d="M33.0582 34.2659C32.1222 34.2659 31.2222 34.1159 30.3582 33.8159C29.5062 33.5159 28.8462 33.1199 28.3782 32.6279L28.9002 31.6019C29.3562 32.0579 29.9622 32.4299 30.7182 32.7179C31.4742 32.9939 32.2542 33.1319 33.0582 33.1319C34.1862 33.1319 35.0322 32.9279 35.5962 32.5199C36.1602 32.0999 36.4422 31.5599 36.4422 30.8999C36.4422 30.3959 36.2862 29.9939 35.9742 29.6939C35.6742 29.3939 35.3022 29.1659 34.8582 29.0099C34.4142 28.8419 33.7962 28.6619 33.0042 28.4699C32.0562 28.2299 31.3002 28.0019 30.7362 27.7859C30.1722 27.5579 29.6862 27.2159 29.2782 26.7599C28.8822 26.3039 28.6842 25.6859 28.6842 24.9059C28.6842 24.2699 28.8522 23.6939 29.1882 23.1779C29.5242 22.6499 30.0402 22.2299 30.7362 21.9179C31.4322 21.6059 32.2962 21.4499 33.3282 21.4499C34.0482 21.4499 34.7502 21.5519 35.4342 21.7559C36.1302 21.9479 36.7302 22.2179 37.2342 22.5659L36.7842 23.6279C36.2562 23.2799 35.6922 23.0219 35.0922 22.8539C34.4922 22.6739 33.9042 22.5839 33.3282 22.5839C32.2242 22.5839 31.3902 22.7999 30.8262 23.2319C30.2742 23.6519 29.9982 24.1979 29.9982 24.8699C29.9982 25.3739 30.1482 25.7819 30.4482 26.0939C30.7602 26.3939 31.1442 26.6279 31.6002 26.7959C32.0682 26.9519 32.6922 27.1259 33.4722 27.3179C34.3962 27.5459 35.1402 27.7739 35.7042 28.0019C36.2802 28.2179 36.7662 28.5539 37.1622 29.0099C37.5582 29.4539 37.7562 30.0599 37.7562 30.8279C37.7562 31.4639 37.5822 32.0459 37.2342 32.5739C36.8982 33.0899 36.3762 33.5039 35.6682 33.8159C34.9602 34.1159 34.0902 34.2659 33.0582 34.2659ZM48.6324 29.8199H40.7124C40.7844 30.8039 41.1624 31.6019 41.8464 32.2139C42.5304 32.8139 43.3944 33.1139 44.4384 33.1139C45.0264 33.1139 45.5664 33.0119 46.0584 32.8079C46.5504 32.5919 46.9764 32.2799 47.3364 31.8719L48.0564 32.6999C47.6364 33.2039 47.1084 33.5879 46.4724 33.8519C45.8484 34.1159 45.1584 34.2479 44.4024 34.2479C43.4304 34.2479 42.5664 34.0439 41.8104 33.6359C41.0664 33.2159 40.4844 32.6399 40.0644 31.9079C39.6444 31.1759 39.4344 30.3479 39.4344 29.4239C39.4344 28.4999 39.6324 27.6719 40.0284 26.9399C40.4364 26.2079 40.9884 25.6379 41.6844 25.2299C42.3924 24.8219 43.1844 24.6179 44.0604 24.6179C44.9364 24.6179 45.7224 24.8219 46.4184 25.2299C47.1144 25.6379 47.6604 26.2079 48.0564 26.9399C48.4524 27.6599 48.6504 28.4879 48.6504 29.4239L48.6324 29.8199ZM44.0604 25.7159C43.1484 25.7159 42.3804 26.0099 41.7564 26.5979C41.1444 27.1739 40.7964 27.9299 40.7124 28.8659H47.4264C47.3424 27.9299 46.9884 27.1739 46.3644 26.5979C45.7524 26.0099 44.9844 25.7159 44.0604 25.7159ZM59.4957 29.8199H51.5757C51.6477 30.8039 52.0257 31.6019 52.7097 32.2139C53.3937 32.8139 54.2577 33.1139 55.3017 33.1139C55.8897 33.1139 56.4297 33.0119 56.9217 32.8079C57.4137 32.5919 57.8397 32.2799 58.1997 31.8719L58.9197 32.6999C58.4997 33.2039 57.9717 33.5879 57.3357 33.8519C56.7117 34.1159 56.0217 34.2479 55.2657 34.2479C54.2937 34.2479 53.4297 34.0439 52.6737 33.6359C51.9297 33.2159 51.3477 32.6399 50.9277 31.9079C50.5077 31.1759 50.2977 30.3479 50.2977 29.4239C50.2977 28.4999 50.4957 27.6719 50.8917 26.9399C51.2997 26.2079 51.8517 25.6379 52.5477 25.2299C53.2557 24.8219 54.0477 24.6179 54.9237 24.6179C55.7997 24.6179 56.5857 24.8219 57.2817 25.2299C57.9777 25.6379 58.5237 26.2079 58.9197 26.9399C59.3157 27.6599 59.5137 28.4879 59.5137 29.4239L59.4957 29.8199ZM54.9237 25.7159C54.0117 25.7159 53.2437 26.0099 52.6197 26.5979C52.0077 27.1739 51.6597 27.9299 51.5757 28.8659H58.2897C58.2057 27.9299 57.8517 27.1739 57.2277 26.5979C56.6157 26.0099 55.8477 25.7159 54.9237 25.7159ZM78.6339 24.6179C79.8219 24.6179 80.7519 24.9599 81.4239 25.6439C82.1079 26.3279 82.4499 27.3359 82.4499 28.6679V34.1579H81.1719V28.7939C81.1719 27.8099 80.9319 27.0599 80.4519 26.5439C79.9839 26.0279 79.3179 25.7699 78.4539 25.7699C77.4699 25.7699 76.6959 26.0759 76.1319 26.6879C75.5679 27.2879 75.2859 28.1219 75.2859 29.1899V34.1579H74.0079V28.7939C74.0079 27.8099 73.7679 27.0599 73.2879 26.5439C72.8199 26.0279 72.1479 25.7699 71.2719 25.7699C70.2999 25.7699 69.5259 26.0759 68.9499 26.6879C68.3859 27.2879 68.1039 28.1219 68.1039 29.1899V34.1579H66.8259V24.6899H68.0499V26.4179C68.3859 25.8419 68.8539 25.3979 69.4539 25.0859C70.0539 24.7739 70.7439 24.6179 71.5239 24.6179C72.3159 24.6179 72.9999 24.7859 73.5759 25.1219C74.1639 25.4579 74.6019 25.9559 74.8899 26.6159C75.2379 25.9919 75.7359 25.5059 76.3839 25.1579C77.0439 24.7979 77.7939 24.6179 78.6339 24.6179ZM89.8209 34.2479C88.9089 34.2479 88.0869 34.0439 87.3549 33.6359C86.6229 33.2159 86.0469 32.6399 85.6269 31.9079C85.2069 31.1759 84.9969 30.3479 84.9969 29.4239C84.9969 28.4999 85.2069 27.6719 85.6269 26.9399C86.0469 26.2079 86.6229 25.6379 87.3549 25.2299C88.0869 24.8219 88.9089 24.6179 89.8209 24.6179C90.7329 24.6179 91.5549 24.8219 92.2869 25.2299C93.0189 25.6379 93.5889 26.2079 93.9969 26.9399C94.4169 27.6719 94.6269 28.4999 94.6269 29.4239C94.6269 30.3479 94.4169 31.1759 93.9969 31.9079C93.5889 32.6399 93.0189 33.2159 92.2869 33.6359C91.5549 34.0439 90.7329 34.2479 89.8209 34.2479ZM89.8209 33.1139C90.4929 33.1139 91.0929 32.9639 91.6209 32.6639C92.1609 32.3519 92.5809 31.9139 92.8809 31.3499C93.1809 30.7859 93.3309 30.1439 93.3309 29.4239C93.3309 28.7039 93.1809 28.0619 92.8809 27.4979C92.5809 26.9339 92.1609 26.5019 91.6209 26.2019C91.0929 25.8899 90.4929 25.7339 89.8209 25.7339C89.1489 25.7339 88.5429 25.8899 88.0029 26.2019C87.4749 26.5019 87.0549 26.9339 86.7429 27.4979C86.4429 28.0619 86.2929 28.7039 86.2929 29.4239C86.2929 30.1439 86.4429 30.7859 86.7429 31.3499C87.0549 31.9139 87.4749 32.3519 88.0029 32.6639C88.5429 32.9639 89.1489 33.1139 89.8209 33.1139ZM98.4601 26.5439C98.7601 25.9079 99.2041 25.4279 99.7921 25.1039C100.392 24.7799 101.13 24.6179 102.006 24.6179V25.8599L101.7 25.8419C100.704 25.8419 99.9241 26.1479 99.3601 26.7599C98.7961 27.3719 98.5141 28.2299 98.5141 29.3339V34.1579H97.2361V24.6899H98.4601V26.5439ZM112.476 29.8199H104.556C104.628 30.8039 105.006 31.6019 105.69 32.2139C106.374 32.8139 107.238 33.1139 108.282 33.1139C108.87 33.1139 109.41 33.0119 109.902 32.8079C110.394 32.5919 110.82 32.2799 111.18 31.8719L111.9 32.6999C111.48 33.2039 110.952 33.5879 110.316 33.8519C109.692 34.1159 109.002 34.2479 108.246 34.2479C107.274 34.2479 106.41 34.0439 105.654 33.6359C104.91 33.2159 104.328 32.6399 103.908 31.9079C103.488 31.1759 103.278 30.3479 103.278 29.4239C103.278 28.4999 103.476 27.6719 103.872 26.9399C104.28 26.2079 104.832 25.6379 105.528 25.2299C106.236 24.8219 107.028 24.6179 107.904 24.6179C108.78 24.6179 109.566 24.8219 110.262 25.2299C110.958 25.6379 111.504 26.2079 111.9 26.9399C112.296 27.6599 112.494 28.4879 112.494 29.4239L112.476 29.8199ZM107.904 25.7159C106.992 25.7159 106.224 26.0099 105.6 26.5979C104.988 27.1739 104.64 27.9299 104.556 28.8659H111.27C111.186 27.9299 110.832 27.1739 110.208 26.5979C109.596 26.0099 108.828 25.7159 107.904 25.7159ZM119.932 34.2479C119.668 34.2479 119.44 34.1519 119.248 33.9599C119.068 33.7679 118.978 33.5339 118.978 33.2579C118.978 32.9819 119.068 32.7539 119.248 32.5739C119.44 32.3819 119.668 32.2859 119.932 32.2859C120.196 32.2859 120.424 32.3819 120.616 32.5739C120.808 32.7539 120.904 32.9819 120.904 33.2579C120.904 33.5339 120.808 33.7679 120.616 33.9599C120.424 34.1519 120.196 34.2479 119.932 34.2479ZM123.747 34.2479C123.483 34.2479 123.255 34.1519 123.063 33.9599C122.883 33.7679 122.793 33.5339 122.793 33.2579C122.793 32.9819 122.883 32.7539 123.063 32.5739C123.255 32.3819 123.483 32.2859 123.747 32.2859C124.011 32.2859 124.239 32.3819 124.431 32.5739C124.623 32.7539 124.719 32.9819 124.719 33.2579C124.719 33.5339 124.623 33.7679 124.431 33.9599C124.239 34.1519 124.011 34.2479 123.747 34.2479ZM127.561 34.2479C127.297 34.2479 127.069 34.1519 126.877 33.9599C126.697 33.7679 126.607 33.5339 126.607 33.2579C126.607 32.9819 126.697 32.7539 126.877 32.5739C127.069 32.3819 127.297 32.2859 127.561 32.2859C127.825 32.2859 128.053 32.3819 128.245 32.5739C128.437 32.7539 128.533 32.9819 128.533 33.2579C128.533 33.5339 128.437 33.7679 128.245 33.9599C128.053 34.1519 127.825 34.2479 127.561 34.2479Z" fill="white"/>
<path d="M33.0582 34.2659C32.1222 34.2659 31.2222 34.1159 30.3582 33.8159C29.5062 33.5159 28.8462 33.1199 28.3782 32.6279L28.9002 31.6019C29.3562 32.0579 29.9622 32.4299 30.7182 32.7179C31.4742 32.9939 32.2542 33.1319 33.0582 33.1319C34.1862 33.1319 35.0322 32.9279 35.5962 32.5199C36.1602 32.0999 36.4422 31.5599 36.4422 30.8999C36.4422 30.3959 36.2862 29.9939 35.9742 29.6939C35.6742 29.3939 35.3022 29.1659 34.8582 29.0099C34.4142 28.8419 33.7962 28.6619 33.0042 28.4699C32.0562 28.2299 31.3002 28.0019 30.7362 27.7859C30.1722 27.5579 29.6862 27.2159 29.2782 26.7599C28.8822 26.3039 28.6842 25.6859 28.6842 24.9059C28.6842 24.2699 28.8522 23.6939 29.1882 23.1779C29.5242 22.6499 30.0402 22.2299 30.7362 21.9179C31.4322 21.6059 32.2962 21.4499 33.3282 21.4499C34.0482 21.4499 34.7502 21.5519 35.4342 21.7559C36.1302 21.9479 36.7302 22.2179 37.2342 22.5659L36.7842 23.6279C36.2562 23.2799 35.6922 23.0219 35.0922 22.8539C34.4922 22.6739 33.9042 22.5839 33.3282 22.5839C32.2242 22.5839 31.3902 22.7999 30.8262 23.2319C30.2742 23.6519 29.9982 24.1979 29.9982 24.8699C29.9982 25.3739 30.1482 25.7819 30.4482 26.0939C30.7602 26.3939 31.1442 26.6279 31.6002 26.7959C32.0682 26.9519 32.6922 27.1259 33.4722 27.3179C34.3962 27.5459 35.1402 27.7739 35.7042 28.0019C36.2802 28.2179 36.7662 28.5539 37.1622 29.0099C37.5582 29.4539 37.7562 30.0599 37.7562 30.8279C37.7562 31.4639 37.5822 32.0459 37.2342 32.5739C36.8982 33.0899 36.3762 33.5039 35.6682 33.8159C34.9602 34.1159 34.0902 34.2659 33.0582 34.2659ZM48.6324 29.8199H40.7124C40.7844 30.8039 41.1624 31.6019 41.8464 32.2139C42.5304 32.8139 43.3944 33.1139 44.4384 33.1139C45.0264 33.1139 45.5664 33.0119 46.0584 32.8079C46.5504 32.5919 46.9764 32.2799 47.3364 31.8719L48.0564 32.6999C47.6364 33.2039 47.1084 33.5879 46.4724 33.8519C45.8484 34.1159 45.1584 34.2479 44.4024 34.2479C43.4304 34.2479 42.5664 34.0439 41.8104 33.6359C41.0664 33.2159 40.4844 32.6399 40.0644 31.9079C39.6444 31.1759 39.4344 30.3479 39.4344 29.4239C39.4344 28.4999 39.6324 27.6719 40.0284 26.9399C40.4364 26.2079 40.9884 25.6379 41.6844 25.2299C42.3924 24.8219 43.1844 24.6179 44.0604 24.6179C44.9364 24.6179 45.7224 24.8219 46.4184 25.2299C47.1144 25.6379 47.6604 26.2079 48.0564 26.9399C48.4524 27.6599 48.6504 28.4879 48.6504 29.4239L48.6324 29.8199ZM44.0604 25.7159C43.1484 25.7159 42.3804 26.0099 41.7564 26.5979C41.1444 27.1739 40.7964 27.9299 40.7124 28.8659H47.4264C47.3424 27.9299 46.9884 27.1739 46.3644 26.5979C45.7524 26.0099 44.9844 25.7159 44.0604 25.7159ZM59.4957 29.8199H51.5757C51.6477 30.8039 52.0257 31.6019 52.7097 32.2139C53.3937 32.8139 54.2577 33.1139 55.3017 33.1139C55.8897 33.1139 56.4297 33.0119 56.9217 32.8079C57.4137 32.5919 57.8397 32.2799 58.1997 31.8719L58.9197 32.6999C58.4997 33.2039 57.9717 33.5879 57.3357 33.8519C56.7117 34.1159 56.0217 34.2479 55.2657 34.2479C54.2937 34.2479 53.4297 34.0439 52.6737 33.6359C51.9297 33.2159 51.3477 32.6399 50.9277 31.9079C50.5077 31.1759 50.2977 30.3479 50.2977 29.4239C50.2977 28.4999 50.4957 27.6719 50.8917 26.9399C51.2997 26.2079 51.8517 25.6379 52.5477 25.2299C53.2557 24.8219 54.0477 24.6179 54.9237 24.6179C55.7997 24.6179 56.5857 24.8219 57.2817 25.2299C57.9777 25.6379 58.5237 26.2079 58.9197 26.9399C59.3157 27.6599 59.5137 28.4879 59.5137 29.4239L59.4957 29.8199ZM54.9237 25.7159C54.0117 25.7159 53.2437 26.0099 52.6197 26.5979C52.0077 27.1739 51.6597 27.9299 51.5757 28.8659H58.2897C58.2057 27.9299 57.8517 27.1739 57.2277 26.5979C56.6157 26.0099 55.8477 25.7159 54.9237 25.7159ZM78.6339 24.6179C79.8219 24.6179 80.7519 24.9599 81.4239 25.6439C82.1079 26.3279 82.4499 27.3359 82.4499 28.6679V34.1579H81.1719V28.7939C81.1719 27.8099 80.9319 27.0599 80.4519 26.5439C79.9839 26.0279 79.3179 25.7699 78.4539 25.7699C77.4699 25.7699 76.6959 26.0759 76.1319 26.6879C75.5679 27.2879 75.2859 28.1219 75.2859 29.1899V34.1579H74.0079V28.7939C74.0079 27.8099 73.7679 27.0599 73.2879 26.5439C72.8199 26.0279 72.1479 25.7699 71.2719 25.7699C70.2999 25.7699 69.5259 26.0759 68.9499 26.6879C68.3859 27.2879 68.1039 28.1219 68.1039 29.1899V34.1579H66.8259V24.6899H68.0499V26.4179C68.3859 25.8419 68.8539 25.3979 69.4539 25.0859C70.0539 24.7739 70.7439 24.6179 71.5239 24.6179C72.3159 24.6179 72.9999 24.7859 73.5759 25.1219C74.1639 25.4579 74.6019 25.9559 74.8899 26.6159C75.2379 25.9919 75.7359 25.5059 76.3839 25.1579C77.0439 24.7979 77.7939 24.6179 78.6339 24.6179ZM89.8209 34.2479C88.9089 34.2479 88.0869 34.0439 87.3549 33.6359C86.6229 33.2159 86.0469 32.6399 85.6269 31.9079C85.2069 31.1759 84.9969 30.3479 84.9969 29.4239C84.9969 28.4999 85.2069 27.6719 85.6269 26.9399C86.0469 26.2079 86.6229 25.6379 87.3549 25.2299C88.0869 24.8219 88.9089 24.6179 89.8209 24.6179C90.7329 24.6179 91.5549 24.8219 92.2869 25.2299C93.0189 25.6379 93.5889 26.2079 93.9969 26.9399C94.4169 27.6719 94.6269 28.4999 94.6269 29.4239C94.6269 30.3479 94.4169 31.1759 93.9969 31.9079C93.5889 32.6399 93.0189 33.2159 92.2869 33.6359C91.5549 34.0439 90.7329 34.2479 89.8209 34.2479ZM89.8209 33.1139C90.4929 33.1139 91.0929 32.9639 91.6209 32.6639C92.1609 32.3519 92.5809 31.9139 92.8809 31.3499C93.1809 30.7859 93.3309 30.1439 93.3309 29.4239C93.3309 28.7039 93.1809 28.0619 92.8809 27.4979C92.5809 26.9339 92.1609 26.5019 91.6209 26.2019C91.0929 25.8899 90.4929 25.7339 89.8209 25.7339C89.1489 25.7339 88.5429 25.8899 88.0029 26.2019C87.4749 26.5019 87.0549 26.9339 86.7429 27.4979C86.4429 28.0619 86.2929 28.7039 86.2929 29.4239C86.2929 30.1439 86.4429 30.7859 86.7429 31.3499C87.0549 31.9139 87.4749 32.3519 88.0029 32.6639C88.5429 32.9639 89.1489 33.1139 89.8209 33.1139ZM98.4601 26.5439C98.7601 25.9079 99.2041 25.4279 99.7921 25.1039C100.392 24.7799 101.13 24.6179 102.006 24.6179V25.8599L101.7 25.8419C100.704 25.8419 99.9241 26.1479 99.3601 26.7599C98.7961 27.3719 98.5141 28.2299 98.5141 29.3339V34.1579H97.2361V24.6899H98.4601V26.5439ZM112.476 29.8199H104.556C104.628 30.8039 105.006 31.6019 105.69 32.2139C106.374 32.8139 107.238 33.1139 108.282 33.1139C108.87 33.1139 109.41 33.0119 109.902 32.8079C110.394 32.5919 110.82 32.2799 111.18 31.8719L111.9 32.6999C111.48 33.2039 110.952 33.5879 110.316 33.8519C109.692 34.1159 109.002 34.2479 108.246 34.2479C107.274 34.2479 106.41 34.0439 105.654 33.6359C104.91 33.2159 104.328 32.6399 103.908 31.9079C103.488 31.1759 103.278 30.3479 103.278 29.4239C103.278 28.4999 103.476 27.6719 103.872 26.9399C104.28 26.2079 104.832 25.6379 105.528 25.2299C106.236 24.8219 107.028 24.6179 107.904 24.6179C108.78 24.6179 109.566 24.8219 110.262 25.2299C110.958 25.6379 111.504 26.2079 111.9 26.9399C112.296 27.6599 112.494 28.4879 112.494 29.4239L112.476 29.8199ZM107.904 25.7159C106.992 25.7159 106.224 26.0099 105.6 26.5979C104.988 27.1739 104.64 27.9299 104.556 28.8659H111.27C111.186 27.9299 110.832 27.1739 110.208 26.5979C109.596 26.0099 108.828 25.7159 107.904 25.7159ZM119.932 34.2479C119.668 34.2479 119.44 34.1519 119.248 33.9599C119.068 33.7679 118.978 33.5339 118.978 33.2579C118.978 32.9819 119.068 32.7539 119.248 32.5739C119.44 32.3819 119.668 32.2859 119.932 32.2859C120.196 32.2859 120.424 32.3819 120.616 32.5739C120.808 32.7539 120.904 32.9819 120.904 33.2579C120.904 33.5339 120.808 33.7679 120.616 33.9599C120.424 34.1519 120.196 34.2479 119.932 34.2479ZM123.747 34.2479C123.483 34.2479 123.255 34.1519 123.063 33.9599C122.883 33.7679 122.793 33.5339 122.793 33.2579C122.793 32.9819 122.883 32.7539 123.063 32.5739C123.255 32.3819 123.483 32.2859 123.747 32.2859C124.011 32.2859 124.239 32.3819 124.431 32.5739C124.623 32.7539 124.719 32.9819 124.719 33.2579C124.719 33.5339 124.623 33.7679 124.431 33.9599C124.239 34.1519 124.011 34.2479 123.747 34.2479ZM127.561 34.2479C127.297 34.2479 127.069 34.1519 126.877 33.9599C126.697 33.7679 126.607 33.5339 126.607 33.2579C126.607 32.9819 126.697 32.7539 126.877 32.5739C127.069 32.3819 127.297 32.2859 127.561 32.2859C127.825 32.2859 128.053 32.3819 128.245 32.5739C128.437 32.7539 128.533 32.9819 128.533 33.2579C128.533 33.5339 128.437 33.7679 128.245 33.9599C128.053 34.1519 127.825 34.2479 127.561 34.2479Z" fill="url(#paint0_linear)"/>
<path d="M30.3582 33.8159L30.1922 34.2875L30.1942 34.2882L30.3582 33.8159ZM28.3782 32.6279L27.9326 32.4012L27.7723 32.7163L28.0159 32.9725L28.3782 32.6279ZM28.9002 31.6019L29.2538 31.2483L28.7668 30.7614L28.4546 31.3752L28.9002 31.6019ZM30.7182 32.7179L30.5402 33.1852L30.5468 33.1876L30.7182 32.7179ZM35.5962 32.5199L35.8893 32.925L35.8949 32.9209L35.5962 32.5199ZM35.9742 29.6939L35.6206 30.0475L35.6277 30.0543L35.9742 29.6939ZM34.8582 29.0099L34.6812 29.4777L34.6925 29.4816L34.8582 29.0099ZM33.0042 28.4699L32.8815 28.9546L32.8864 28.9558L33.0042 28.4699ZM30.7362 27.7859L30.5488 28.2495L30.5574 28.2528L30.7362 27.7859ZM29.2782 26.7599L28.9007 27.0878L28.9056 27.0933L29.2782 26.7599ZM29.1882 23.1779L29.6072 23.4507L29.6101 23.4463L29.1882 23.1779ZM30.7362 21.9179L30.9408 22.3742L30.9408 22.3742L30.7362 21.9179ZM35.4342 21.7559L35.2913 22.2351L35.3013 22.2379L35.4342 21.7559ZM37.2342 22.5659L37.6946 22.761L37.8535 22.3859L37.5183 22.1544L37.2342 22.5659ZM36.7842 23.6279L36.5091 24.0454L37.0104 24.3758L37.2446 23.823L36.7842 23.6279ZM35.0922 22.8539L34.9485 23.3329L34.9574 23.3354L35.0922 22.8539ZM30.8262 23.2319L31.129 23.6298L31.1303 23.6288L30.8262 23.2319ZM30.4482 26.0939L30.0878 26.4405L30.0946 26.4475L30.1017 26.4543L30.4482 26.0939ZM31.6002 26.7959L31.4274 27.2651L31.4347 27.2678L31.4421 27.2702L31.6002 26.7959ZM33.4722 27.3179L33.592 26.8325L33.5917 26.8324L33.4722 27.3179ZM35.7042 28.0019L35.5168 28.4656L35.5287 28.4701L35.7042 28.0019ZM37.1622 29.0099L36.7847 29.3378L36.7891 29.3427L37.1622 29.0099ZM37.2342 32.5739L36.8167 32.2987L36.8152 32.3011L37.2342 32.5739ZM35.6682 33.8159L35.8633 34.2763L35.8699 34.2734L35.6682 33.8159ZM33.0582 33.7659C32.1767 33.7659 31.3323 33.6248 30.5222 33.3436L30.1942 34.2882C31.1122 34.607 32.0677 34.7659 33.0582 34.7659V33.7659ZM30.5243 33.3443C29.7232 33.0622 29.1391 32.7023 28.7405 32.2833L28.0159 32.9725C28.5534 33.5375 29.2892 33.9696 30.1922 34.2875L30.5243 33.3443ZM28.8239 32.8546L29.3459 31.8286L28.4546 31.3752L27.9326 32.4012L28.8239 32.8546ZM28.5467 31.9555C29.0635 32.4723 29.7346 32.8782 30.5402 33.1851L30.8962 32.2507C30.1899 31.9816 29.649 31.6435 29.2538 31.2483L28.5467 31.9555ZM30.5468 33.1876C31.3576 33.4836 32.1957 33.6319 33.0582 33.6319V32.6319C32.3128 32.6319 31.5908 32.5042 30.8897 32.2482L30.5468 33.1876ZM33.0582 33.6319C34.2316 33.6319 35.2018 33.4224 35.8893 32.925L35.3032 32.1148C34.8627 32.4334 34.1409 32.6319 33.0582 32.6319V33.6319ZM35.8949 32.9209C36.5759 32.4138 36.9422 31.7296 36.9422 30.8999H35.9422C35.9422 31.3902 35.7446 31.786 35.2976 32.1189L35.8949 32.9209ZM36.9422 30.8999C36.9422 30.2842 36.7471 29.7434 36.3208 29.3335L35.6277 30.0543C35.8254 30.2444 35.9422 30.5076 35.9422 30.8999H36.9422ZM36.3278 29.3403C35.9693 28.9818 35.5308 28.7163 35.024 28.5382L34.6925 29.4816C35.0736 29.6155 35.3792 29.806 35.6207 30.0475L36.3278 29.3403ZM35.0352 28.5423C34.563 28.3636 33.9221 28.1779 33.122 27.984L32.8864 28.9558C33.6704 29.1459 34.2655 29.3202 34.6813 29.4775L35.0352 28.5423ZM33.1269 27.9852C32.1879 27.7475 31.453 27.525 30.9151 27.319L30.5574 28.2528C31.1474 28.4788 31.9246 28.7123 32.8815 28.9546L33.1269 27.9852ZM30.9236 27.3223C30.4309 27.1232 30.0082 26.8259 29.6508 26.4265L28.9056 27.0933C29.3643 27.6059 29.9135 27.9926 30.5488 28.2495L30.9236 27.3223ZM29.6557 26.4321C29.3595 26.0909 29.1842 25.6014 29.1842 24.9059H28.1842C28.1842 25.7704 28.405 26.5169 28.9007 27.0877L29.6557 26.4321ZM29.1842 24.9059C29.1842 24.3634 29.3259 23.8828 29.6072 23.4507L28.7692 22.9051C28.3786 23.505 28.1842 24.1764 28.1842 24.9059H29.1842ZM29.6101 23.4463C29.8831 23.0173 30.3143 22.655 30.9408 22.3742L30.5317 21.4616C29.7661 21.8048 29.1654 22.2825 28.7664 22.9095L29.6101 23.4463ZM30.9408 22.3742C31.554 22.0993 32.3432 21.9499 33.3282 21.9499V20.9499C32.2492 20.9499 31.3105 21.1125 30.5317 21.4616L30.9408 22.3742ZM33.3282 21.9499C34.0003 21.9499 34.6541 22.045 35.2913 22.235L35.5771 21.2768C34.8463 21.0588 34.0962 20.9499 33.3282 20.9499V21.9499ZM35.3013 22.2379C35.9527 22.4176 36.4996 22.6663 36.9501 22.9773L37.5183 22.1544C36.9608 21.7695 36.3077 21.4782 35.5672 21.2739L35.3013 22.2379ZM36.7739 22.3708L36.3239 23.4328L37.2446 23.823L37.6946 22.761L36.7739 22.3708ZM37.0594 23.2104C36.4888 22.8344 35.8776 22.5546 35.227 22.3724L34.9574 23.3354C35.5069 23.4892 36.0236 23.7254 36.5091 24.0454L37.0594 23.2104ZM35.2359 22.375C34.5933 22.1822 33.9569 22.0839 33.3282 22.0839V23.0839C33.8515 23.0839 34.3911 23.1656 34.9486 23.3328L35.2359 22.375ZM33.3282 22.0839C32.1715 22.0839 31.21 22.3081 30.5222 22.835L31.1303 23.6288C31.5705 23.2917 32.2769 23.0839 33.3282 23.0839V22.0839ZM30.5235 22.834C29.8519 23.345 29.4982 24.0359 29.4982 24.8699H30.4982C30.4982 24.3599 30.6966 23.9588 31.129 23.6298L30.5235 22.834ZM29.4982 24.8699C29.4982 25.4803 29.6836 26.0201 30.0878 26.4405L30.8086 25.7473C30.6129 25.5437 30.4982 25.2675 30.4982 24.8699H29.4982ZM30.1017 26.4543C30.4692 26.8077 30.9145 27.0761 31.4274 27.2651L31.7731 26.3267C31.3739 26.1797 31.0512 25.9801 30.7948 25.7335L30.1017 26.4543ZM31.4421 27.2702C31.9282 27.4323 32.5667 27.6099 33.3527 27.8034L33.5917 26.8324C32.8178 26.6419 32.2083 26.4715 31.7583 26.3216L31.4421 27.2702ZM33.3524 27.8033C34.2647 28.0284 34.9835 28.2498 35.5168 28.4655L35.8916 27.5383C35.297 27.298 34.5277 27.0634 33.592 26.8325L33.3524 27.8033ZM35.5287 28.4701C36.0282 28.6574 36.4443 28.9458 36.7847 29.3377L37.5397 28.6821C37.0881 28.162 36.5322 27.7784 35.8798 27.5337L35.5287 28.4701ZM36.7891 29.3427C37.0819 29.671 37.2562 30.146 37.2562 30.8279H38.2562C38.2562 29.9738 38.0346 29.2368 37.5354 28.6771L36.7891 29.3427ZM37.2562 30.8279C37.2562 31.3667 37.1106 31.8529 36.8167 32.2987L37.6517 32.8491C38.0539 32.2389 38.2562 31.5611 38.2562 30.8279H37.2562ZM36.8152 32.3011C36.5443 32.7171 36.1085 33.0755 35.4666 33.3584L35.8699 34.2734C36.644 33.9323 37.2521 33.4627 37.6532 32.8467L36.8152 32.3011ZM35.4732 33.3555C34.8441 33.6221 34.0449 33.7659 33.0582 33.7659V34.7659C34.1356 34.7659 35.0764 34.6097 35.8633 34.2763L35.4732 33.3555ZM48.6324 29.8199V30.3199H49.1102L49.1319 29.8426L48.6324 29.8199ZM40.7124 29.8199V29.3199H40.1745L40.2138 29.8564L40.7124 29.8199ZM41.8464 32.2139L41.513 32.5865L41.5167 32.5898L41.8464 32.2139ZM46.0584 32.8079L46.25 33.2699L46.2594 33.2657L46.0584 32.8079ZM47.3364 31.8719L47.7137 31.5438L47.3392 31.1131L46.9615 31.5411L47.3364 31.8719ZM48.0564 32.6999L48.4406 33.02L48.713 32.693L48.4337 32.3718L48.0564 32.6999ZM46.4724 33.8519L46.2808 33.3901L46.2776 33.3914L46.4724 33.8519ZM41.8104 33.6359L41.5646 34.0714L41.573 34.0759L41.8104 33.6359ZM40.0644 31.9079L39.6308 32.1567L39.6308 32.1567L40.0644 31.9079ZM40.0284 26.9399L39.5917 26.6964L39.5887 26.702L40.0284 26.9399ZM41.6844 25.2299L41.4348 24.7967L41.4316 24.7985L41.6844 25.2299ZM48.0564 26.9399L47.6167 27.1778L47.6183 27.1809L48.0564 26.9399ZM48.6504 29.4239L49.1499 29.4466L49.1504 29.4353V29.4239H48.6504ZM41.7564 26.5979L42.0991 26.962L42.0993 26.9618L41.7564 26.5979ZM40.7124 28.8659L40.2144 28.8212L40.1656 29.3659H40.7124V28.8659ZM47.4264 28.8659V29.3659H47.9733L47.9244 28.8212L47.4264 28.8659ZM46.3644 26.5979L46.018 26.9585L46.0253 26.9653L46.3644 26.5979ZM48.6324 29.3199H40.7124V30.3199H48.6324V29.3199ZM40.2138 29.8564C40.2945 30.959 40.7248 31.8813 41.513 32.5865L42.1798 31.8413C41.6001 31.3225 41.2744 30.6488 41.2111 29.7834L40.2138 29.8564ZM41.5167 32.5898C42.3053 33.2815 43.2922 33.6139 44.4384 33.6139V32.6139C43.4967 32.6139 42.7556 32.3463 42.1762 31.838L41.5167 32.5898ZM44.4384 33.6139C45.0853 33.6139 45.6912 33.5014 46.25 33.2698L45.8669 32.346C45.4417 32.5224 44.9676 32.6139 44.4384 32.6139V33.6139ZM46.2594 33.2657C46.8188 33.0201 47.3039 32.6645 47.7114 32.2027L46.9615 31.5411C46.649 31.8953 46.2821 32.1637 45.8575 32.3501L46.2594 33.2657ZM46.9591 32.2L47.6791 33.028L48.4337 32.3718L47.7137 31.5438L46.9591 32.2ZM47.6723 32.3798C47.3067 32.8186 46.8459 33.1555 46.2808 33.3901L46.6641 34.3137C47.371 34.0203 47.9662 33.5892 48.4406 33.02L47.6723 32.3798ZM46.2776 33.3914C45.722 33.6265 45.0993 33.7479 44.4024 33.7479V34.7479C45.2176 34.7479 45.9749 34.6053 46.6673 34.3124L46.2776 33.3914ZM44.4024 33.7479C43.5023 33.7479 42.7218 33.5596 42.0479 33.1959L41.573 34.0759C42.4111 34.5282 43.3586 34.7479 44.4024 34.7479V33.7479ZM42.0562 33.2005C41.3895 32.8241 40.8728 32.3121 40.4981 31.6591L39.6308 32.1567C40.0961 32.9677 40.7434 33.6077 41.5646 34.0713L42.0562 33.2005ZM40.4981 31.6591C40.1256 31.0099 39.9344 30.2691 39.9344 29.4239H38.9344C38.9344 30.4267 39.1633 31.3419 39.6308 32.1567L40.4981 31.6591ZM39.9344 29.4239C39.9344 28.5736 40.116 27.8289 40.4682 27.1778L39.5887 26.702C39.1489 27.5148 38.9344 28.4262 38.9344 29.4239H39.9344ZM40.4652 27.1833C40.8315 26.5261 41.3213 26.0223 41.9373 25.6612L41.4316 24.7985C40.6556 25.2535 40.0414 25.8897 39.5917 26.6965L40.4652 27.1833ZM41.9341 25.6631C42.5607 25.302 43.2655 25.1179 44.0604 25.1179V24.1179C43.1033 24.1179 42.2242 24.3418 41.4348 24.7967L41.9341 25.6631ZM44.0604 25.1179C44.8554 25.1179 45.5528 25.302 46.1656 25.6612L46.6713 24.7985C45.8921 24.3418 45.0175 24.1179 44.0604 24.1179V25.1179ZM46.1656 25.6612C46.7802 26.0215 47.2627 26.5235 47.6167 27.1778L48.4962 26.702C48.0582 25.8923 47.4487 25.2543 46.6713 24.7985L46.1656 25.6612ZM47.6183 27.1809C47.9684 27.8173 48.1504 28.5603 48.1504 29.4239H49.1504C49.1504 28.4155 48.9365 27.5025 48.4946 26.6989L47.6183 27.1809ZM48.151 29.4012L48.133 29.7972L49.1319 29.8426L49.1499 29.4466L48.151 29.4012ZM44.0604 25.2159C43.0299 25.2159 42.1366 25.5527 41.4135 26.234L42.0993 26.9618C42.6243 26.4671 43.267 26.2159 44.0604 26.2159V25.2159ZM41.4138 26.2338C40.7019 26.9037 40.308 27.7788 40.2144 28.8212L41.2104 28.9106C41.2849 28.081 41.5869 27.4441 42.0991 26.962L41.4138 26.2338ZM40.7124 29.3659H47.4264V28.3659H40.7124V29.3659ZM47.9244 28.8212C47.8306 27.7759 47.4287 26.8999 46.7036 26.2305L46.0253 26.9653C46.5482 27.4479 46.8543 28.0839 46.9284 28.9106L47.9244 28.8212ZM46.7109 26.2373C45.9971 25.5515 45.101 25.2159 44.0604 25.2159V26.2159C44.8678 26.2159 45.5078 26.4683 46.018 26.9585L46.7109 26.2373ZM59.4957 29.8199V30.3199H59.9735L59.9952 29.8426L59.4957 29.8199ZM51.5757 29.8199V29.3199H51.0378L51.0771 29.8564L51.5757 29.8199ZM52.7097 32.2139L52.3763 32.5865L52.38 32.5898L52.7097 32.2139ZM56.9217 32.8079L57.1133 33.2699L57.1227 33.2657L56.9217 32.8079ZM58.1997 31.8719L58.577 31.5438L58.2025 31.1131L57.8248 31.5411L58.1997 31.8719ZM58.9197 32.6999L59.3038 33.02L59.5763 32.693L59.297 32.3718L58.9197 32.6999ZM57.3357 33.8519L57.144 33.3901L57.1409 33.3914L57.3357 33.8519ZM52.6737 33.6359L52.4279 34.0714L52.4363 34.0759L52.6737 33.6359ZM50.9277 31.9079L50.494 32.1567L50.494 32.1567L50.9277 31.9079ZM50.8917 26.9399L50.455 26.6964L50.452 26.702L50.8917 26.9399ZM52.5477 25.2299L52.2981 24.7967L52.2949 24.7985L52.5477 25.2299ZM58.9197 26.9399L58.4799 27.1778L58.4816 27.1809L58.9197 26.9399ZM59.5137 29.4239L60.0132 29.4466L60.0137 29.4353V29.4239H59.5137ZM52.6197 26.5979L52.9624 26.962L52.9626 26.9618L52.6197 26.5979ZM51.5757 28.8659L51.0777 28.8212L51.0288 29.3659H51.5757V28.8659ZM58.2897 28.8659V29.3659H58.8366L58.7877 28.8212L58.2897 28.8659ZM57.2277 26.5979L56.8812 26.9585L56.8886 26.9653L57.2277 26.5979ZM59.4957 29.3199H51.5757V30.3199H59.4957V29.3199ZM51.0771 29.8564C51.1577 30.959 51.5881 31.8813 52.3763 32.5865L53.0431 31.8413C52.4634 31.3225 52.1377 30.6488 52.0744 29.7834L51.0771 29.8564ZM52.38 32.5898C53.1686 33.2815 54.1554 33.6139 55.3017 33.6139V32.6139C54.36 32.6139 53.6189 32.3463 53.0394 31.838L52.38 32.5898ZM55.3017 33.6139C55.9486 33.6139 56.5545 33.5014 57.1132 33.2698L56.7302 32.346C56.305 32.5224 55.8309 32.6139 55.3017 32.6139V33.6139ZM57.1227 33.2657C57.6821 33.0201 58.1672 32.6645 58.5746 32.2027L57.8248 31.5411C57.5122 31.8953 57.1454 32.1637 56.7207 32.3501L57.1227 33.2657ZM57.8224 32.2L58.5424 33.028L59.297 32.3718L58.577 31.5438L57.8224 32.2ZM58.5356 32.3798C58.1699 32.8186 57.7092 33.1555 57.144 33.3901L57.5274 34.3137C58.2342 34.0203 58.8295 33.5892 59.3038 33.02L58.5356 32.3798ZM57.1409 33.3914C56.5853 33.6265 55.9626 33.7479 55.2657 33.7479V34.7479C56.0809 34.7479 56.8381 34.6053 57.5305 34.3124L57.1409 33.3914ZM55.2657 33.7479C54.3656 33.7479 53.5851 33.5596 52.9112 33.1959L52.4363 34.0759C53.2744 34.5282 54.2219 34.7479 55.2657 34.7479V33.7479ZM52.9195 33.2005C52.2528 32.8241 51.7361 32.3121 51.3614 31.6591L50.494 32.1567C50.9593 32.9677 51.6067 33.6077 52.4279 34.0713L52.9195 33.2005ZM51.3614 31.6591C50.9889 31.0099 50.7977 30.2691 50.7977 29.4239H49.7977C49.7977 30.4267 50.0265 31.3419 50.494 32.1567L51.3614 31.6591ZM50.7977 29.4239C50.7977 28.5736 50.9792 27.8289 51.3315 27.1778L50.452 26.702C50.0122 27.5148 49.7977 28.4262 49.7977 29.4239H50.7977ZM51.3285 27.1833C51.6948 26.5261 52.1846 26.0223 52.8006 25.6612L52.2949 24.7985C51.5188 25.2535 50.9047 25.8897 50.455 26.6965L51.3285 27.1833ZM52.7974 25.6631C53.424 25.302 54.1288 25.1179 54.9237 25.1179V24.1179C53.9666 24.1179 53.0875 24.3418 52.2981 24.7967L52.7974 25.6631ZM54.9237 25.1179C55.7187 25.1179 56.4161 25.302 57.0289 25.6612L57.5346 24.7985C56.7554 24.3418 55.8807 24.1179 54.9237 24.1179V25.1179ZM57.0289 25.6612C57.6435 26.0215 58.126 26.5235 58.48 27.1778L59.3595 26.702C58.9215 25.8923 58.312 25.2543 57.5346 24.7985L57.0289 25.6612ZM58.4816 27.1809C58.8317 27.8173 59.0137 28.5603 59.0137 29.4239H60.0137C60.0137 28.4155 59.7998 27.5025 59.3578 26.6989L58.4816 27.1809ZM59.0142 29.4012L58.9962 29.7972L59.9952 29.8426L60.0132 29.4466L59.0142 29.4012ZM54.9237 25.2159C53.8932 25.2159 52.9999 25.5527 52.2768 26.234L52.9626 26.9618C53.4876 26.4671 54.1303 26.2159 54.9237 26.2159V25.2159ZM52.277 26.2338C51.5652 26.9037 51.1713 27.7788 51.0777 28.8212L52.0737 28.9106C52.1482 28.081 52.4502 27.4441 52.9624 26.962L52.277 26.2338ZM51.5757 29.3659H58.2897V28.3659H51.5757V29.3659ZM58.7877 28.8212C58.6939 27.7759 58.292 26.8999 57.5669 26.2305L56.8886 26.9653C57.4115 27.4479 57.7175 28.0839 57.7917 28.9106L58.7877 28.8212ZM57.5741 26.2373C56.8603 25.5515 55.9643 25.2159 54.9237 25.2159V26.2159C55.7311 26.2159 56.3711 26.4683 56.8813 26.9585L57.5741 26.2373ZM81.4239 25.6439L81.0673 25.9943L81.0704 25.9975L81.4239 25.6439ZM82.4499 34.1579V34.6579H82.9499V34.1579H82.4499ZM81.1719 34.1579H80.6719V34.6579H81.1719V34.1579ZM80.4519 26.5439L80.0816 26.8798L80.0859 26.8844L80.4519 26.5439ZM76.1319 26.6879L76.4963 27.0304L76.4996 27.0267L76.1319 26.6879ZM75.2859 34.1579V34.6579H75.7859V34.1579H75.2859ZM74.0079 34.1579H73.5079V34.6579H74.0079V34.1579ZM73.2879 26.5439L72.9176 26.8798L72.9219 26.8844L73.2879 26.5439ZM68.9499 26.6879L68.5858 26.3452L68.5856 26.3454L68.9499 26.6879ZM68.1039 34.1579V34.6579H68.6039V34.1579H68.1039ZM66.8259 34.1579H66.3259V34.6579H66.8259V34.1579ZM66.8259 24.6899V24.1899H66.3259V24.6899H66.8259ZM68.0499 24.6899H68.5499V24.1899H68.0499V24.6899ZM68.0499 26.4179H67.5499V28.2674L68.4818 26.6698L68.0499 26.4179ZM69.4539 25.0859L69.6846 25.5295L69.6846 25.5295L69.4539 25.0859ZM73.5759 25.1219L73.324 25.5538L73.3279 25.556L73.5759 25.1219ZM74.8899 26.6159L74.4317 26.8159L74.8352 27.7406L75.3266 26.8594L74.8899 26.6159ZM76.3839 25.1579L76.6205 25.5984L76.6234 25.5968L76.3839 25.1579ZM78.6339 25.1179C79.7219 25.1179 80.5107 25.4278 81.0673 25.9943L81.7806 25.2935C80.9932 24.492 79.922 24.1179 78.6339 24.1179V25.1179ZM81.0704 25.9975C81.6298 26.5569 81.9499 27.4175 81.9499 28.6679H82.9499C82.9499 27.2543 82.5861 26.0989 81.7775 25.2903L81.0704 25.9975ZM81.9499 28.6679V34.1579H82.9499V28.6679H81.9499ZM82.4499 33.6579H81.1719V34.6579H82.4499V33.6579ZM81.6719 34.1579V28.7939H80.6719V34.1579H81.6719ZM81.6719 28.7939C81.6719 27.7339 81.4131 26.8431 80.818 26.2033L80.0859 26.8844C80.4507 27.2767 80.6719 27.8859 80.6719 28.7939H81.6719ZM80.8223 26.208C80.2375 25.5632 79.4226 25.2699 78.4539 25.2699V26.2699C79.2133 26.2699 79.7304 26.4926 80.0816 26.8798L80.8223 26.208ZM78.4539 25.2699C77.358 25.2699 76.4402 25.6156 75.7643 26.3491L76.4996 27.0267C76.9517 26.5362 77.5819 26.2699 78.4539 26.2699V25.2699ZM75.7676 26.3454C75.093 27.0632 74.7859 28.0337 74.7859 29.1899H75.7859C75.7859 28.2101 76.0429 27.5126 76.4963 27.0304L75.7676 26.3454ZM74.7859 29.1899V34.1579H75.7859V29.1899H74.7859ZM75.2859 33.6579H74.0079V34.6579H75.2859V33.6579ZM74.5079 34.1579V28.7939H73.5079V34.1579H74.5079ZM74.5079 28.7939C74.5079 27.7339 74.2491 26.8431 73.654 26.2033L72.9219 26.8844C73.2867 27.2767 73.5079 27.8859 73.5079 28.7939H74.5079ZM73.6583 26.208C73.0722 25.5618 72.2501 25.2699 71.2719 25.2699V26.2699C72.0458 26.2699 72.5677 26.494 72.9176 26.8798L73.6583 26.208ZM71.2719 25.2699C70.1857 25.2699 69.2714 25.6168 68.5858 26.3452L69.314 27.0306C69.7805 26.535 70.4142 26.2699 71.2719 26.2699V25.2699ZM68.5856 26.3454C67.911 27.0632 67.6039 28.0337 67.6039 29.1899H68.6039C68.6039 28.2101 68.8609 27.5126 69.3143 27.0304L68.5856 26.3454ZM67.6039 29.1899V34.1579H68.6039V29.1899H67.6039ZM68.1039 33.6579H66.8259V34.6579H68.1039V33.6579ZM67.3259 34.1579V24.6899H66.3259V34.1579H67.3259ZM66.8259 25.1899H68.0499V24.1899H66.8259V25.1899ZM67.5499 24.6899V26.4179H68.5499V24.6899H67.5499ZM68.4818 26.6698C68.7695 26.1767 69.1672 25.7986 69.6846 25.5295L69.2233 24.6423C68.5407 24.9972 68.0024 25.5071 67.6181 26.166L68.4818 26.6698ZM69.6846 25.5295C70.2032 25.2599 70.8119 25.1179 71.5239 25.1179V24.1179C70.676 24.1179 69.9047 24.2879 69.2233 24.6423L69.6846 25.5295ZM71.5239 25.1179C72.2441 25.1179 72.8377 25.2701 73.324 25.5538L73.8279 24.69C73.1622 24.3017 72.3878 24.1179 71.5239 24.1179V25.1179ZM73.3279 25.556C73.8163 25.8351 74.1838 26.2479 74.4317 26.8159L75.3482 26.4159C75.0201 25.6639 74.5116 25.0807 73.824 24.6878L73.3279 25.556ZM75.3266 26.8594C75.6267 26.3214 76.054 25.9026 76.6205 25.5984L76.1474 24.7174C75.4179 25.1092 74.8492 25.6624 74.4533 26.3724L75.3266 26.8594ZM76.6234 25.5968C77.2016 25.2814 77.8676 25.1179 78.6339 25.1179V24.1179C77.7203 24.1179 76.8863 24.3144 76.1445 24.719L76.6234 25.5968ZM87.3549 33.6359L87.1061 34.0696L87.1115 34.0726L87.3549 33.6359ZM85.6269 31.9079L85.1933 32.1567L85.1933 32.1567L85.6269 31.9079ZM85.6269 26.9399L85.1933 26.6911L85.1933 26.6911L85.6269 26.9399ZM87.3549 25.2299L87.1115 24.7932L87.1115 24.7932L87.3549 25.2299ZM92.2869 25.2299L92.5304 24.7932L92.5304 24.7932L92.2869 25.2299ZM93.9969 26.9399L93.5602 27.1833L93.5633 27.1887L93.9969 26.9399ZM93.9969 31.9079L93.5632 31.659L93.5602 31.6645L93.9969 31.9079ZM92.2869 33.6359L92.5304 34.0727L92.5358 34.0696L92.2869 33.6359ZM91.6209 32.6639L91.868 33.0986L91.8711 33.0968L91.6209 32.6639ZM92.8809 31.3499L93.3224 31.5847L93.3224 31.5847L92.8809 31.3499ZM92.8809 27.4979L93.3224 27.2631L93.3224 27.2631L92.8809 27.4979ZM91.6209 26.2019L91.3665 26.6325L91.3781 26.639L91.6209 26.2019ZM88.0029 26.2019L88.25 26.6366L88.2531 26.6348L88.0029 26.2019ZM86.7429 27.4979L86.3054 27.2558L86.3015 27.2631L86.7429 27.4979ZM86.7429 31.3499L86.3014 31.5847L86.3054 31.5919L86.7429 31.3499ZM88.0029 32.6639L87.7485 33.0945L87.7601 33.101L88.0029 32.6639ZM89.8209 33.7479C88.9864 33.7479 88.2495 33.5621 87.5984 33.1992L87.1115 34.0726C87.9244 34.5257 88.8315 34.7479 89.8209 34.7479V33.7479ZM87.6038 33.2022C86.9487 32.8263 86.4365 32.3141 86.0606 31.6591L85.1933 32.1567C85.6574 32.9657 86.2972 33.6054 87.1061 34.0696L87.6038 33.2022ZM86.0606 31.6591C85.6881 31.0099 85.4969 30.2691 85.4969 29.4239H84.4969C84.4969 30.4267 84.7258 31.3419 85.1933 32.1567L86.0606 31.6591ZM85.4969 29.4239C85.4969 28.5787 85.6881 27.8379 86.0606 27.1887L85.1933 26.6911C84.7258 27.5059 84.4969 28.4211 84.4969 29.4239H85.4969ZM86.0606 27.1887C86.4358 26.5349 86.9463 26.0301 87.5984 25.6666L87.1115 24.7932C86.2996 25.2457 85.6581 25.8809 85.1933 26.6911L86.0606 27.1887ZM87.5984 25.6666C88.2495 25.3037 88.9864 25.1179 89.8209 25.1179V24.1179C88.8315 24.1179 87.9244 24.3401 87.1115 24.7932L87.5984 25.6666ZM89.8209 25.1179C90.6555 25.1179 91.3924 25.3037 92.0435 25.6666L92.5304 24.7932C91.7175 24.3401 90.8104 24.1179 89.8209 24.1179V25.1179ZM92.0435 25.6666C92.6944 26.0294 93.1974 26.5325 93.5602 27.1833L94.4337 26.6965C93.9805 25.8833 93.3435 25.2464 92.5304 24.7932L92.0435 25.6666ZM93.5633 27.1887C93.9358 27.8379 94.1269 28.5787 94.1269 29.4239H95.1269C95.1269 28.4211 94.8981 27.5059 94.4306 26.6911L93.5633 27.1887ZM94.1269 29.4239C94.1269 30.2691 93.9358 31.0099 93.5633 31.6591L94.4306 32.1567C94.8981 31.3419 95.1269 30.4267 95.1269 29.4239H94.1269ZM93.5602 31.6645C93.1967 32.3166 92.692 32.8271 92.0381 33.2022L92.5358 34.0696C93.3459 33.6047 93.9812 32.9632 94.4337 32.1513L93.5602 31.6645ZM92.0435 33.1992C91.3924 33.5621 90.6555 33.7479 89.8209 33.7479V34.7479C90.8104 34.7479 91.7175 34.5257 92.5304 34.0726L92.0435 33.1992ZM89.8209 33.6139C90.5701 33.6139 91.2568 33.4458 91.868 33.0986L91.3739 32.2292C90.929 32.482 90.4158 32.6139 89.8209 32.6139V33.6139ZM91.8711 33.0968C92.4942 32.7368 92.9795 32.2292 93.3224 31.5847L92.4395 31.1151C92.1823 31.5986 91.8277 31.967 91.3708 32.231L91.8711 33.0968ZM93.3224 31.5847C93.6655 30.9396 93.8309 30.2152 93.8309 29.4239H92.8309C92.8309 30.0726 92.6964 30.6322 92.4395 31.1151L93.3224 31.5847ZM93.8309 29.4239C93.8309 28.6326 93.6655 27.9082 93.3224 27.2631L92.4395 27.7327C92.6964 28.2156 92.8309 28.7752 92.8309 29.4239H93.8309ZM93.3224 27.2631C92.9787 26.617 92.4911 26.1133 91.8638 25.7648L91.3781 26.639C91.8308 26.8905 92.1832 27.2508 92.4395 27.7327L93.3224 27.2631ZM91.8753 25.7714C91.263 25.4096 90.5736 25.2339 89.8209 25.2339V26.2339C90.4123 26.2339 90.9229 26.3702 91.3666 26.6324L91.8753 25.7714ZM89.8209 25.2339C89.0682 25.2339 88.3747 25.4096 87.7528 25.769L88.2531 26.6348C88.7112 26.3702 89.2297 26.2339 89.8209 26.2339V25.2339ZM87.7559 25.7672C87.1429 26.1155 86.6591 26.6165 86.3054 27.2559L87.1805 27.7399C87.4508 27.2513 87.807 26.8883 88.25 26.6366L87.7559 25.7672ZM86.3015 27.2631C85.9584 27.9082 85.7929 28.6326 85.7929 29.4239H86.7929C86.7929 28.7752 86.9275 28.2156 87.1844 27.7327L86.3015 27.2631ZM85.7929 29.4239C85.7929 30.2152 85.9584 30.9396 86.3015 31.5847L87.1844 31.1151C86.9275 30.6322 86.7929 30.0726 86.7929 29.4239H85.7929ZM86.3054 31.5919C86.6583 32.2298 87.1398 32.7347 87.7486 33.0944L88.2573 32.2334C87.81 31.9691 87.4516 31.598 87.1805 31.1079L86.3054 31.5919ZM87.7601 33.101C88.3808 33.4458 89.0716 33.6139 89.8209 33.6139V32.6139C89.2263 32.6139 88.7051 32.482 88.2458 32.2268L87.7601 33.101ZM98.4601 26.5439H97.9601L98.9123 26.7572L98.4601 26.5439ZM99.7921 25.1039L99.5545 24.6639L99.5508 24.666L99.7921 25.1039ZM102.006 24.6179H102.506V24.1179H102.006V24.6179ZM102.006 25.8599L101.977 26.359L102.506 26.3902V25.8599H102.006ZM101.7 25.8419L101.729 25.3428L101.715 25.3419H101.7V25.8419ZM99.3601 26.7599L99.7278 27.0987L99.7278 27.0987L99.3601 26.7599ZM98.5141 34.1579V34.6579H99.0141V34.1579H98.5141ZM97.2361 34.1579H96.7361V34.6579H97.2361V34.1579ZM97.2361 24.6899V24.1899H96.7361V24.6899H97.2361ZM98.4601 24.6899H98.9601V24.1899H98.4601V24.6899ZM98.9123 26.7572C99.1697 26.2116 99.5422 25.8125 100.033 25.5418L99.5508 24.666C98.8661 25.0433 98.3505 25.6042 98.0079 26.3306L98.9123 26.7572ZM100.03 25.5439C100.539 25.2689 101.19 25.1179 102.006 25.1179V24.1179C101.07 24.1179 100.245 24.2909 99.5545 24.6639L100.03 25.5439ZM101.506 24.6179V25.8599H102.506V24.6179H101.506ZM102.035 25.3608L101.729 25.3428L101.671 26.341L101.977 26.359L102.035 25.3608ZM101.7 25.3419C100.594 25.3419 99.6696 25.6863 98.9924 26.4211L99.7278 27.0987C100.179 26.6095 100.814 26.3419 101.7 26.3419V25.3419ZM98.9924 26.4211C98.3187 27.1522 98.0141 28.1463 98.0141 29.3339H99.0141C99.0141 28.3135 99.2735 27.5916 99.7278 27.0987L98.9924 26.4211ZM98.0141 29.3339V34.1579H99.0141V29.3339H98.0141ZM98.5141 33.6579H97.2361V34.6579H98.5141V33.6579ZM97.7361 34.1579V24.6899H96.7361V34.1579H97.7361ZM97.2361 25.1899H98.4601V24.1899H97.2361V25.1899ZM97.9601 24.6899V26.5439H98.9601V24.6899H97.9601ZM112.476 29.8199V30.3199H112.954L112.976 29.8426L112.476 29.8199ZM104.556 29.8199V29.3199H104.018L104.058 29.8564L104.556 29.8199ZM105.69 32.2139L105.357 32.5865L105.36 32.5898L105.69 32.2139ZM109.902 32.8079L110.094 33.2699L110.103 33.2657L109.902 32.8079ZM111.18 31.8719L111.557 31.5438L111.183 31.1131L110.805 31.5411L111.18 31.8719ZM111.9 32.6999L112.284 33.02L112.557 32.693L112.277 32.3718L111.9 32.6999ZM110.316 33.8519L110.125 33.3901L110.121 33.3914L110.316 33.8519ZM105.654 33.6359L105.408 34.0714L105.417 34.0759L105.654 33.6359ZM103.908 31.9079L103.475 32.1567L103.475 32.1567L103.908 31.9079ZM103.872 26.9399L103.435 26.6964L103.432 26.702L103.872 26.9399ZM105.528 25.2299L105.279 24.7967L105.275 24.7985L105.528 25.2299ZM111.9 26.9399L111.46 27.1778L111.462 27.1809L111.9 26.9399ZM112.494 29.4239L112.994 29.4466L112.994 29.4353V29.4239H112.494ZM105.6 26.5979L105.943 26.962L105.943 26.9618L105.6 26.5979ZM104.556 28.8659L104.058 28.8212L104.009 29.3659H104.556V28.8659ZM111.27 28.8659V29.3659H111.817L111.768 28.8212L111.27 28.8659ZM110.208 26.5979L109.862 26.9585L109.869 26.9653L110.208 26.5979ZM112.476 29.3199H104.556V30.3199H112.476V29.3199ZM104.058 29.8564C104.138 30.959 104.569 31.8813 105.357 32.5865L106.024 31.8413C105.444 31.3225 105.118 30.6488 105.055 29.7834L104.058 29.8564ZM105.36 32.5898C106.149 33.2815 107.136 33.6139 108.282 33.6139V32.6139C107.34 32.6139 106.599 32.3463 106.02 31.838L105.36 32.5898ZM108.282 33.6139C108.929 33.6139 109.535 33.5014 110.094 33.2698L109.711 32.346C109.285 32.5224 108.811 32.6139 108.282 32.6139V33.6139ZM110.103 33.2657C110.663 33.0201 111.148 32.6645 111.555 32.2027L110.805 31.5411C110.493 31.8953 110.126 32.1637 109.701 32.3501L110.103 33.2657ZM110.803 32.2L111.523 33.028L112.277 32.3718L111.557 31.5438L110.803 32.2ZM111.516 32.3798C111.15 32.8186 110.69 33.1555 110.125 33.3901L110.508 34.3137C111.215 34.0203 111.81 33.5892 112.284 33.02L111.516 32.3798ZM110.121 33.3914C109.566 33.6265 108.943 33.7479 108.246 33.7479V34.7479C109.061 34.7479 109.819 34.6053 110.511 34.3124L110.121 33.3914ZM108.246 33.7479C107.346 33.7479 106.566 33.5596 105.892 33.1959L105.417 34.0759C106.255 34.5282 107.202 34.7479 108.246 34.7479V33.7479ZM105.9 33.2005C105.233 32.8241 104.717 32.3121 104.342 31.6591L103.475 32.1567C103.94 32.9677 104.587 33.6077 105.408 34.0713L105.9 33.2005ZM104.342 31.6591C103.969 31.0099 103.778 30.2691 103.778 29.4239H102.778C102.778 30.4267 103.007 31.3419 103.475 32.1567L104.342 31.6591ZM103.778 29.4239C103.778 28.5736 103.96 27.8289 104.312 27.1778L103.432 26.702C102.993 27.5148 102.778 28.4262 102.778 29.4239H103.778ZM104.309 27.1833C104.675 26.5261 105.165 26.0223 105.781 25.6612L105.275 24.7985C104.499 25.2535 103.885 25.8897 103.435 26.6965L104.309 27.1833ZM105.778 25.6631C106.404 25.302 107.109 25.1179 107.904 25.1179V24.1179C106.947 24.1179 106.068 24.3418 105.279 24.7967L105.778 25.6631ZM107.904 25.1179C108.699 25.1179 109.397 25.302 110.009 25.6612L110.515 24.7985C109.736 24.3418 108.861 24.1179 107.904 24.1179V25.1179ZM110.009 25.6612C110.624 26.0215 111.106 26.5235 111.46 27.1778L112.34 26.702C111.902 25.8923 111.292 25.2543 110.515 24.7985L110.009 25.6612ZM111.462 27.1809C111.812 27.8173 111.994 28.5603 111.994 29.4239H112.994C112.994 28.4155 112.78 27.5025 112.338 26.6989L111.462 27.1809ZM111.995 29.4012L111.977 29.7972L112.976 29.8426L112.994 29.4466L111.995 29.4012ZM107.904 25.2159C106.874 25.2159 105.98 25.5527 105.257 26.234L105.943 26.9618C106.468 26.4671 107.111 26.2159 107.904 26.2159V25.2159ZM105.258 26.2338C104.546 26.9037 104.152 27.7788 104.058 28.8212L105.054 28.9106C105.129 28.081 105.431 27.4441 105.943 26.962L105.258 26.2338ZM104.556 29.3659H111.27V28.3659H104.556V29.3659ZM111.768 28.8212C111.674 27.7759 111.272 26.8999 110.547 26.2305L109.869 26.9653C110.392 27.4479 110.698 28.0839 110.772 28.9106L111.768 28.8212ZM110.555 26.2373C109.841 25.5515 108.945 25.2159 107.904 25.2159V26.2159C108.712 26.2159 109.352 26.4683 109.862 26.9585L110.555 26.2373ZM119.248 33.9599L118.884 34.3019L118.889 34.3078L118.895 34.3135L119.248 33.9599ZM119.248 32.5739L118.895 32.2203L118.895 32.2203L119.248 32.5739ZM120.616 32.5739L120.263 32.9275L120.269 32.9332L120.274 32.9387L120.616 32.5739ZM120.616 33.9599L120.263 33.6063L120.263 33.6063L120.616 33.9599ZM119.932 33.7479C119.805 33.7479 119.703 33.7076 119.602 33.6063L118.895 34.3135C119.178 34.5962 119.532 34.7479 119.932 34.7479V33.7479ZM119.613 33.6179C119.525 33.5235 119.478 33.4137 119.478 33.2579H118.478C118.478 33.6541 118.612 34.0123 118.884 34.3019L119.613 33.6179ZM119.478 33.2579C119.478 33.1022 119.524 33.0053 119.602 32.9275L118.895 32.2203C118.613 32.5025 118.478 32.8616 118.478 33.2579H119.478ZM119.602 32.9275C119.703 32.8262 119.805 32.7859 119.932 32.7859V31.7859C119.532 31.7859 119.178 31.9376 118.895 32.2203L119.602 32.9275ZM119.932 32.7859C120.06 32.7859 120.162 32.8262 120.263 32.9275L120.97 32.2203C120.687 31.9376 120.333 31.7859 119.932 31.7859V32.7859ZM120.274 32.9387C120.36 33.0191 120.404 33.1125 120.404 33.2579H121.404C121.404 32.8513 121.257 32.4887 120.958 32.2091L120.274 32.9387ZM120.404 33.2579C120.404 33.4037 120.359 33.5098 120.263 33.6063L120.97 34.3135C121.257 34.026 121.404 33.6641 121.404 33.2579H120.404ZM120.263 33.6063C120.162 33.7076 120.06 33.7479 119.932 33.7479V34.7479C120.333 34.7479 120.687 34.5962 120.97 34.3135L120.263 33.6063ZM123.063 33.9599L122.698 34.3019L122.704 34.3078L122.709 34.3135L123.063 33.9599ZM123.063 32.5739L122.709 32.2203L122.709 32.2203L123.063 32.5739ZM124.431 32.5739L124.077 32.9275L124.083 32.9332L124.089 32.9387L124.431 32.5739ZM124.431 33.9599L124.077 33.6063L124.077 33.6063L124.431 33.9599ZM123.747 33.7479C123.62 33.7479 123.518 33.7076 123.416 33.6063L122.709 34.3135C122.992 34.5962 123.346 34.7479 123.747 34.7479V33.7479ZM123.428 33.6179C123.339 33.5235 123.293 33.4137 123.293 33.2579H122.293C122.293 33.6541 122.427 34.0123 122.698 34.3019L123.428 33.6179ZM123.293 33.2579C123.293 33.1022 123.339 33.0053 123.416 32.9275L122.709 32.2203C122.427 32.5025 122.293 32.8616 122.293 33.2579H123.293ZM123.416 32.9275C123.518 32.8262 123.62 32.7859 123.747 32.7859V31.7859C123.346 31.7859 122.992 31.9376 122.709 32.2203L123.416 32.9275ZM123.747 32.7859C123.874 32.7859 123.976 32.8262 124.077 32.9275L124.784 32.2203C124.502 31.9376 124.148 31.7859 123.747 31.7859V32.7859ZM124.089 32.9387C124.175 33.0191 124.219 33.1125 124.219 33.2579H125.219C125.219 32.8513 125.071 32.4887 124.773 32.2091L124.089 32.9387ZM124.219 33.2579C124.219 33.4037 124.174 33.5098 124.077 33.6063L124.784 34.3135C125.072 34.026 125.219 33.6641 125.219 33.2579H124.219ZM124.077 33.6063C123.976 33.7076 123.874 33.7479 123.747 33.7479V34.7479C124.148 34.7479 124.502 34.5962 124.784 34.3135L124.077 33.6063ZM126.877 33.9599L126.513 34.3019L126.518 34.3078L126.524 34.3135L126.877 33.9599ZM126.877 32.5739L126.524 32.2203L126.524 32.2203L126.877 32.5739ZM128.245 32.5739L127.892 32.9275L127.897 32.9332L127.903 32.9387L128.245 32.5739ZM128.245 33.9599L127.892 33.6063L127.892 33.6063L128.245 33.9599ZM127.561 33.7479C127.434 33.7479 127.332 33.7076 127.231 33.6063L126.524 34.3135C126.807 34.5962 127.161 34.7479 127.561 34.7479V33.7479ZM127.242 33.6179C127.154 33.5235 127.107 33.4137 127.107 33.2579H126.107C126.107 33.6541 126.241 34.0123 126.513 34.3019L127.242 33.6179ZM127.107 33.2579C127.107 33.1022 127.153 33.0053 127.231 32.9275L126.524 32.2203C126.242 32.5025 126.107 32.8616 126.107 33.2579H127.107ZM127.231 32.9275C127.332 32.8262 127.434 32.7859 127.561 32.7859V31.7859C127.161 31.7859 126.807 31.9376 126.524 32.2203L127.231 32.9275ZM127.561 32.7859C127.689 32.7859 127.791 32.8262 127.892 32.9275L128.599 32.2203C128.316 31.9376 127.962 31.7859 127.561 31.7859V32.7859ZM127.903 32.9387C127.989 33.0191 128.033 33.1125 128.033 33.2579H129.033C129.033 32.8513 128.886 32.4887 128.587 32.2091L127.903 32.9387ZM128.033 33.2579C128.033 33.4037 127.988 33.5098 127.892 33.6063L128.599 34.3135C128.886 34.026 129.033 33.6641 129.033 33.2579H128.033ZM127.892 33.6063C127.791 33.7076 127.689 33.7479 127.561 33.7479V34.7479C127.962 34.7479 128.316 34.5962 128.599 34.3135L127.892 33.6063Z" fill="white"/>
<defs>
<linearGradient id="paint0_linear" x1="78.5" y1="1.1579" x2="78.5" y2="55" gradientUnits="userSpaceOnUse">
<stop stop-color="white"/>
<stop offset="1" stop-color="white" stop-opacity="0"/>
</linearGradient>
</defs>
</svg>
